<svg style="overflow:visible;width:100%;height:auto" viewBox="-5 -5 950 355" xmlns:xlink="http://www.w3.org/1999/xlink" xmlns="http://www.w3.org/2000/svg"><g transform="translate(0, 0)"><g transform="translate(0, 0)" pointer-events="none"><text style="font-size:13.75px;font-family:monospace" x="5.875" y="18" text-anchor="middle">M</text><text style="font-size:13.75px;font-family:monospace" x="17.625" y="18" text-anchor="middle">N</text><text style="font-size:13.75px;font-family:monospace" x="29.375" y="18" text-anchor="middle">H</text><text style="font-size:13.75px;font-family:monospace" x="41.125" y="18" text-anchor="middle">S</text><text style="font-size:13.75px;font-family:monospace" x="52.875" y="18" text-anchor="middle">M</text><text style="font-size:13.75px;font-family:monospace" x="64.625" y="18" text-anchor="middle">D</text><text style="font-size:13.75px;font-family:monospace" x="76.375" y="18" text-anchor="middle">A</text><text style="font-size:13.75px;font-family:monospace" x="88.125" y="18" text-anchor="middle">G</text><text style="font-size:13.75px;font-family:monospace" x="99.875" y="18" text-anchor="middle">S</text><text style="font-size:13.75px;font-family:monospace" x="111.625" y="18" text-anchor="middle">P</text><text style="font-size:13.75px;font-family:monospace" x="123.375" y="18" text-anchor="middle">N</text><text style="font-size:13.75px;font-family:monospace" x="135.125" y="18" text-anchor="middle">L</text><text style="font-size:13.75px;font-family:monospace" x="146.875" y="18" text-anchor="middle">S</text><text style="font-size:13.75px;font-family:monospace" x="158.625" y="18" text-anchor="middle">P</text><text style="font-size:13.75px;font-family:monospace" x="170.375" y="18" text-anchor="middle">N</text><text style="font-size:13.75px;font-family:monospace" x="182.125" y="18" text-anchor="middle">P</text><text style="font-size:13.75px;font-family:monospace" x="193.875" y="18" text-anchor="middle">M</text><text style="font-size:13.75px;font-family:monospace" x="205.625" y="18" text-anchor="middle">S</text><text style="font-size:13.75px;font-family:monospace" x="217.375" y="18" text-anchor="middle">P</text><text style="font-size:13.75px;font-family:monospace" x="229.125" y="18" text-anchor="middle">A</text><text style="font-size:13.75px;font-family:monospace" x="240.875" y="18" text-anchor="middle">H</text><text style="font-size:13.75px;font-family:monospace" x="252.625" y="18" text-anchor="middle">N</text><text style="font-size:13.75px;font-family:monospace" x="264.375" y="18" text-anchor="middle">N</text><text style="font-size:13.75px;font-family:monospace" x="276.125" y="18" text-anchor="middle">L</text><text style="font-size:13.75px;font-family:monospace" x="287.875" y="18" text-anchor="middle">D</text><text style="font-size:13.75px;font-family:monospace" x="299.625" y="18" text-anchor="middle">L</text><text style="font-size:13.75px;font-family:monospace" x="311.375" y="18" text-anchor="middle">Q</text><text style="font-size:13.75px;font-family:monospace" x="323.125" y="18" text-anchor="middle">P</text><text style="font-size:13.75px;font-family:monospace" x="334.875" y="18" text-anchor="middle">V</text><text style="font-size:13.75px;font-family:monospace" x="346.625" y="18" text-anchor="middle">T</text><text style="font-size:13.75px;font-family:monospace" x="358.375" y="18" text-anchor="middle">Y</text><text style="font-size:13.75px;font-family:monospace" x="370.125" y="18" text-anchor="middle">C</text><text style="font-size:13.75px;font-family:monospace" x="381.875" y="18" text-anchor="middle">E</text><text style="font-size:13.75px;font-family:monospace" x="393.625" y="18" text-anchor="middle">P</text><text style="font-size:13.75px;font-family:monospace" x="405.375" y="18" text-anchor="middle">A</text><text style="font-size:13.75px;font-family:monospace" x="417.125" y="18" text-anchor="middle">F</text><text style="font-size:13.75px;font-family:monospace" x="428.875" y="18" text-anchor="middle">W</text><text style="font-size:13.75px;font-family:monospace" x="440.625" y="18" text-anchor="middle">C</text><text style="font-size:13.75px;font-family:monospace" x="452.375" y="18" text-anchor="middle">S</text><text style="font-size:13.75px;font-family:monospace" x="464.125" y="18" text-anchor="middle">I</text><text style="font-size:13.75px;font-family:monospace" x="475.875" y="18" text-anchor="middle">S</text><text style="font-size:13.75px;font-family:monospace" x="487.625" y="18" text-anchor="middle">Y</text><text style="font-size:13.75px;font-family:monospace" x="499.375" y="18" text-anchor="middle">Y</text><text style="font-size:13.75px;font-family:monospace" x="511.125" y="18" text-anchor="middle">E</text><text style="font-size:13.75px;font-family:monospace" x="522.875" y="18" text-anchor="middle">L</text><text style="font-size:13.75px;font-family:monospace" x="534.625" y="18" text-anchor="middle">N</text><text style="font-size:13.75px;font-family:monospace" x="546.375" y="18" text-anchor="middle">Q</text><text style="font-size:13.75px;font-family:monospace" x="558.125" y="18" text-anchor="middle">R</text><text style="font-size:13.75px;font-family:monospace" x="569.875" y="18" text-anchor="middle">V</text><text style="font-size:13.75px;font-family:monospace" x="581.625" y="18" text-anchor="middle">G</text><text style="font-size:13.75px;font-family:monospace" x="593.375" y="18" text-anchor="middle">E</text><text style="font-size:13.75px;font-family:monospace" x="605.125" y="18" text-anchor="middle">T</text><text style="font-size:13.75px;font-family:monospace" x="616.875" y="18" text-anchor="middle">F</text><text style="font-size:13.75px;font-family:monospace" x="628.625" y="18" text-anchor="middle">H</text><text style="font-size:13.75px;font-family:monospace" x="640.375" y="18" text-anchor="middle">A</text><text style="font-size:13.75px;font-family:monospace" x="652.125" y="18" text-anchor="middle">S</text><text style="font-size:13.75px;font-family:monospace" x="663.875" y="18" text-anchor="middle">Q</text><text style="font-size:13.75px;font-family:monospace" x="675.625" y="18" text-anchor="middle">P</text><text style="font-size:13.75px;font-family:monospace" x="687.375" y="18" text-anchor="middle">S</text><text style="font-size:13.75px;font-family:monospace" x="699.125" y="18" text-anchor="middle">M</text><text style="font-size:13.75px;font-family:monospace" x="710.875" y="18" text-anchor="middle">T</text><text style="font-size:13.75px;font-family:monospace" x="722.625" y="18" text-anchor="middle">V</text><text style="font-size:13.75px;font-family:monospace" x="734.375" y="18" text-anchor="middle">D</text><text style="font-size:13.75px;font-family:monospace" x="746.125" y="18" text-anchor="middle">G</text><text style="font-size:13.75px;font-family:monospace" x="757.875" y="18" text-anchor="middle">F</text><text style="font-size:13.75px;font-family:monospace" x="769.625" y="18" text-anchor="middle">T</text><text style="font-size:13.75px;font-family:monospace" x="781.375" y="18" text-anchor="middle">D</text><text style="font-size:13.75px;font-family:monospace" x="793.125" y="18" text-anchor="middle">P</text><text style="font-size:13.75px;font-family:monospace" x="804.875" y="18" text-anchor="middle">S</text><text style="font-size:13.75px;font-family:monospace" x="816.625" y="18" text-anchor="middle">N</text><text style="font-size:13.75px;font-family:monospace" x="828.375" y="18" text-anchor="middle">S</text><text style="font-size:13.75px;font-family:monospace" x="840.125" y="18" text-anchor="middle">E</text><text style="font-size:13.75px;font-family:monospace" x="851.875" y="18" text-anchor="middle">R</text><text style="font-size:13.75px;font-family:monospace" x="863.625" y="18" text-anchor="middle">F</text><text style="font-size:13.75px;font-family:monospace" x="875.375" y="18" text-anchor="middle">C</text><text style="font-size:13.75px;font-family:monospace" x="887.125" y="18" text-anchor="middle">L</text><text style="font-size:13.75px;font-family:monospace" x="898.875" y="18" text-anchor="middle">G</text><text style="font-size:13.75px;font-family:monospace" x="910.625" y="18" text-anchor="middle">L</text><text style="font-size:13.75px;font-family:monospace" x="922.375" y="18" text-anchor="middle">L</text><text style="font-size:13.75px;font-family:monospace" x="934.125" y="18" text-anchor="middle">S</text></g><g transform="translate(0, 23)" pointer-events="none"><defs><linearGradient id="rsaGradienta770" x1="0" x2="0" y1="0" y2="18" gradientUnits="userSpaceOnUse"><stop offset="0%" stop-color="#990000"></stop><stop offset="75%" stop-color="#990000"></stop><stop offset="75%" stop-color="#3366cc"></stop><stop offset="100%" stop-color="#3366cc"></stop></linearGradient><clipPath id="clipa770"><rect x="0" y="0" width="940" height="18"></rect></clipPath></defs><path d="M -5.875 2.1427663564682007 C 0 2.1427663564682007, 0 2.1427663564682007, 5.875 2.1427663564682007 C 11.75 2.1427663564682007, 11.75 2.485069215297699 17.625 2.485069215297699 C 23.5 2.485069215297699, 23.5 3.846128821372986 29.375 3.846128821372986 C 35.25 3.846128821372986, 35.25 4.52802300453186 41.125 4.52802300453186 C 47 4.52802300453186, 47 5.966439366340637 52.875 5.966439366340637 C 58.75 5.966439366340637, 58.75 4.504322409629822 64.625 4.504322409629822 C 70.5 4.504322409629822, 70.5 5.441301465034485 76.375 5.441301465034485 C 82.25 5.441301465034485, 82.25 4.780480444431305 88.125 4.780480444431305 C 94 4.780480444431305, 94 6.42902147769928 99.875 6.42902147769928 C 105.75 6.42902147769928, 105.75 5.175023913383484 111.625 5.175023913383484 C 117.5 5.175023913383484, 117.5 4.142314314842224 123.375 4.142314314842224 C 129.25 4.142314314842224, 129.25 7.02762109041214 135.125 7.02762109041214 C 141 7.02762109041214, 141 6.703588664531708 146.875 6.703588664531708 C 152.75 6.703588664531708, 152.75 7.459779500961304 158.625 7.459779500961304 C 164.5 7.459779500961304, 164.5 7.1294039487838745 170.375 7.1294039487838745 C 176.25 7.1294039487838745, 176.25 6.479405760765076 182.125 6.479405760765076 C 188 6.479405760765076, 188 9.012138575315475 193.875 9.012138575315475 C 199.75 9.012138575315475, 199.75 9.86347022652626 205.625 9.86347022652626 C 211.5 9.86347022652626, 211.5 7.027616024017334 217.375 7.027616024017334 C 223.25 7.027616024017334, 223.25 7.575299382209778 229.125 7.575299382209778 C 235 7.575299382209778, 235 7.741079926490784 240.875 7.741079926490784 C 246.75 7.741079926490784, 246.75 7.144585907459259 252.625 7.144585907459259 C 258.5 7.144585907459259, 258.5 3.922481417655945 264.375 3.922481417655945 C 270.25 3.922481417655945, 270.25 8.922563195228577 276.125 8.922563195228577 C 282 8.922563195228577, 282 4.35867166519165 287.875 4.35867166519165 C 293.75 4.35867166519165, 293.75 11.698638498783112 299.625 11.698638498783112 C 305.5 11.698638498783112, 305.5 6.400790512561798 311.375 6.400790512561798 C 317.25 6.400790512561798, 317.25 7.4947497844696045 323.125 7.4947497844696045 C 329 7.4947497844696045, 329 12.447497248649597 334.875 12.447497248649597 C 340.75 12.447497248649597, 340.75 5.064752817153931 346.625 5.064752817153931 C 352.5 5.064752817153931, 352.5 9.697571635246277 358.375 9.697571635246277 C 364.25 9.697571635246277, 364.25 8.195695638656616 370.125 8.195695638656616 C 376 8.195695638656616, 376 7.850486695766449 381.875 7.850486695766449 C 387.75 7.850486695766449, 387.75 9.003366619348526 393.625 9.003366619348526 C 399.5 9.003366619348526, 399.5 7.757431209087372 405.375 7.757431209087372 C 411.25 7.757431209087372, 411.25 12.171882331371307 417.125 12.171882331371307 C 423 12.171882331371307, 423 14.213128745555878 428.875 14.213128745555878 C 434.75 14.213128745555878, 434.75 17.17921867966652 440.625 17.17921867966652 C 446.5 17.17921867966652, 446.5 15.204943925142288 452.375 15.204943925142288 C 458.25 15.204943925142288, 458.25 17.141827672719955 464.125 17.141827672719955 C 470 17.141827672719955, 470 16.316835701465607 475.875 16.316835701465607 C 481.75 16.316835701465607, 481.75 16.584721833467484 487.625 16.584721833467484 C 493.5 16.584721833467484, 493.5 15.495763599872589 499.375 15.495763599872589 C 505.25 15.495763599872589, 505.25 15.621950775384903 511.125 15.621950775384903 C 517 15.621950775384903, 517 12.58514004945755 522.875 12.58514004945755 C 528.75 12.58514004945755, 528.75 8.04853105545044 534.625 8.04853105545044 C 540.5 8.04853105545044, 540.5 8.093509495258331 546.375 8.093509495258331 C 552.25 8.093509495258331, 552.25 10.003761738538742 558.125 10.003761738538742 C 564 10.003761738538742, 564 13.875536620616913 569.875 13.875536620616913 C 575.75 13.875536620616913, 575.75 13.959381401538849 581.625 13.959381401538849 C 587.5 13.959381401538849, 587.5 7.024445474147797 593.375 7.024445474147797 C 599.25 7.024445474147797, 599.25 11.305526286363602 605.125 11.305526286363602 C 611 11.305526286363602, 611 14.467235803604126 616.875 14.467235803604126 C 622.75 14.467235803604126, 622.75 7.415038168430328 628.625 7.415038168430328 C 634.5 7.415038168430328, 634.5 16.9596426486969 640.375 16.9596426486969 C 646.25 16.9596426486969, 646.25 6.772589921951294 652.125 6.772589921951294 C 658 6.772589921951294, 658 8.91244661808014 663.875 8.91244661808014 C 669.75 8.91244661808014, 669.75 9.821137964725494 675.625 9.821137964725494 C 681.5 9.821137964725494, 681.5 13.817680925130844 687.375 13.817680925130844 C 693.25 13.817680925130844, 693.25 16.72691121697426 699.125 16.72691121697426 C 705 16.72691121697426, 705 13.056806713342667 710.875 13.056806713342667 C 716.75 13.056806713342667, 716.75 17.163162767887115 722.625 17.163162767887115 C 728.5 17.163162767887115, 728.5 12.65323543548584 734.375 12.65323543548584 C 740.25 12.65323543548584, 740.25 15.387978583574295 746.125 15.387978583574295 C 752 15.387978583574295, 752 14.219072133302689 757.875 14.219072133302689 C 763.75 14.219072133302689, 763.75 11.098996222019196 769.625 11.098996222019196 C 775.5 11.098996222019196, 775.5 11.240159660577774 781.375 11.240159660577774 C 787.25 11.240159660577774, 787.25 10.271136164665222 793.125 10.271136164665222 C 799 10.271136164665222, 799 7.441686391830444 804.875 7.441686391830444 C 810.75 7.441686391830444, 810.75 8.819213807582855 816.625 8.819213807582855 C 822.5 8.819213807582855, 822.5 11.559087693691254 828.375 11.559087693691254 C 834.25 11.559087693691254, 834.25 7.035665512084961 840.125 7.035665512084961 C 846 7.035665512084961, 846 11.633809924125671 851.875 11.633809924125671 C 857.75 11.633809924125671, 857.75 16.623809069395065 863.625 16.623809069395065 C 869.5 16.623809069395065, 869.5 16.497025072574615 875.375 16.497025072574615 C 881.25 16.497025072574615, 881.25 17.144299060106277 887.125 17.144299060106277 C 893 17.144299060106277, 893 14.336077481508255 898.875 14.336077481508255 C 904.75 14.336077481508255, 904.75 11.469951570034027 910.625 11.469951570034027 C 916.5 11.469951570034027, 916.5 16.14847382903099 922.375 16.14847382903099 C 928.25 16.14847382903099, 928.25 8.840796649456024 934.125 8.840796649456024 C 940 8.840796649456024, 940 12.032284915447235 945.875 12.032284915447235 V 13.25 H -5.875" style="fill:url(#rsaGradienta770)" clip-path="url(#clipa770)"></path></g><g transform="translate(0, 46)" pointer-events="none"><defs><g id="icon-ss-Hb-28f8"><path d="M 7.05 0.5 H 2.35 Q 0 0.5, -7.05 17.5 H -2.35 Q 0 17.5, 7.05 0.5" fill="#ff6600"></path></g><g id="icon-ss-Hf-28f8"><path d="M -7.05 0.5 H -2.35 Q 0 0.5, 7.05 17.5 H 2.35 Q 0 17.5, -7.05 0.5" fill="#ff9900"></path></g><g id="icon-ss-Hef-28f8" style="fill:#ff9900"><path d="M 0 7.2 L 9.4 17.5 H 4.7 Q 2.35 17.5, 0 10.799999999999999"></path></g><g id="icon-ss-Heb-28f8"><path d="M 11.75 7.2 L 2.35 17.5 H 7.05 Q 9.4 17.5, 11.75 10.799999999999999" fill="#ff6600"></path></g><clipPath id="clip28f8"><rect x="0" y="0" width="940" height="18"></rect></clipPath></defs><g clip-path="url(#clip28f8)"><rect width="305.5" height="3.6" y="7.2" x="0" fill="#cc3399"></rect><rect width="5.875" height="3.6" y="7.2" x="323.125" fill="#cc3399"></rect><path d="M 305.5 3.6 H 322.53749999999997 V 0.5 L 329 9 L 322.53749999999997 17.5 V 14.4 H 305.5 " fill="#660099"></path><rect width="105.75" height="3.6" y="7.2" x="329" fill="#cc3399"></rect><rect width="5.875" height="3.6" y="7.2" x="511.125" fill="#cc3399"></rect><path d="M 434.75 3.6 H 510.5375 V 0.5 L 517 9 L 510.5375 17.5 V 14.4 H 434.75 " fill="#660099"></path><rect width="23.5" height="3.6" y="7.2" x="517" fill="#cc3399"></rect><rect width="5.875" height="3.6" y="7.2" x="628.625" fill="#cc3399"></rect><path d="M 540.5 3.6 H 628.0375 V 0.5 L 634.5 9 L 628.0375 17.5 V 14.4 H 540.5 " fill="#660099"></path><rect width="47" height="3.6" y="7.2" x="634.5" fill="#cc3399"></rect><rect width="5.875" height="3.6" y="7.2" x="734.375" fill="#cc3399"></rect><path d="M 681.5 3.6 H 733.7875 V 0.5 L 740.25 9 L 733.7875 17.5 V 14.4 H 681.5 " fill="#660099"></path><rect width="117.5" height="3.6" y="7.2" x="740.25" fill="#cc3399"></rect><rect width="5.875" height="3.6" y="7.2" x="875.375" fill="#cc3399"></rect><path d="M 857.75 3.6 H 874.7875 V 0.5 L 881.25 9 L 874.7875 17.5 V 14.4 H 857.75 " fill="#660099"></path><use xlink:href="#icon-ss-Hb-28f8" transform="translate(893, 0)"></use><use xlink:href="#icon-ss-Hef-28f8" transform="translate(881.25, 0)"></use><use xlink:href="#icon-ss-Heb-28f8" transform="translate(904.75, 0)"></use><use xlink:href="#icon-ss-Hf-28f8" transform="translate(904.75, 0)"></use><rect width="23.5" height="3.6" y="7.2" x="916.5" fill="#cc3399"></rect></g></g><g transform="translate(0, 69)" pointer-events="none"><defs><clipPath id="clipd658"><rect x="0" y="0" width="940" height="18"></rect></clipPath></defs><path d="M -5.875 0.516481876373291 C 0 0.516481876373291, 0 0.516481876373291, 5.875 0.516481876373291 C 11.75 0.516481876373291, 11.75 0.5454668998718262, 17.625 0.5454668998718262 C 23.5 0.5454668998718262, 23.5 0.5324945449829102, 29.375 0.5324945449829102 C 35.25 0.5324945449829102, 35.25 0.5669794082641602, 41.125 0.5669794082641602 C 47 0.5669794082641602, 47 0.5837974548339844, 52.875 0.5837974548339844 C 58.75 0.5837974548339844, 58.75 0.6517758369445801, 64.625 0.6517758369445801 C 70.5 0.6517758369445801, 70.5 0.5918235778808594, 76.375 0.5918235778808594 C 82.25 0.5918235778808594, 82.25 0.6095747947692871, 88.125 0.6095747947692871 C 94 0.6095747947692871, 94 0.618950366973877, 99.875 0.618950366973877 C 105.75 0.618950366973877, 105.75 0.7152214050292969, 111.625 0.7152214050292969 C 117.5 0.7152214050292969, 117.5 0.7403430938720703, 123.375 0.7403430938720703 C 129.25 0.7403430938720703, 129.25 0.8208932876586914, 135.125 0.8208932876586914 C 141 0.8208932876586914, 141 0.8349199295043945, 146.875 0.8349199295043945 C 152.75 0.8349199295043945, 152.75 1.132514476776123, 158.625 1.132514476776123 C 164.5 1.132514476776123, 164.5 1.0903468132019043, 170.375 1.0903468132019043 C 176.25 1.0903468132019043, 176.25 1.698617935180664, 182.125 1.698617935180664 C 188 1.698617935180664, 188 1.3564386367797852, 193.875 1.3564386367797852 C 199.75 1.3564386367797852, 199.75 1.411221981048584, 205.625 1.411221981048584 C 211.5 1.411221981048584, 211.5 2.027635097503662, 217.375 2.027635097503662 C 223.25 2.027635097503662, 223.25 2.0806374549865723, 229.125 2.0806374549865723 C 235 2.0806374549865723, 235 2.3892693519592285, 240.875 2.3892693519592285 C 246.75 2.3892693519592285, 246.75 3.0305638313293457, 252.625 3.0305638313293457 C 258.5 3.0305638313293457, 258.5 4.356589317321777, 264.375 4.356589317321777 C 270.25 4.356589317321777, 270.25 5.487579107284546, 276.125 5.487579107284546 C 282 5.487579107284546, 282 7.177535176277161, 287.875 7.177535176277161 C 293.75 7.177535176277161, 293.75 7.879514992237091, 299.625 7.879514992237091 C 305.5 7.879514992237091, 305.5 8.206840693950653, 311.375 8.206840693950653 C 317.25 8.206840693950653, 317.25 8.07470965385437, 323.125 8.07470965385437 C 329 8.07470965385437, 329 8.068784564733505, 334.875 8.068784564733505 C 340.75 8.068784564733505, 340.75 8.117044359445572, 346.625 8.117044359445572 C 352.5 8.117044359445572, 352.5 8.050147086381912, 358.375 8.050147086381912 C 364.25 8.050147086381912, 364.25 8.003420948982239, 370.125 8.003420948982239 C 376 8.003420948982239, 376 8.131151795387268, 381.875 8.131151795387268 C 387.75 8.131151795387268, 387.75 8.21460446715355, 393.625 8.21460446715355 C 399.5 8.21460446715355, 399.5 8.349869310855865, 405.375 8.349869310855865 C 411.25 8.349869310855865, 411.25 8.416713245213032, 417.125 8.416713245213032 C 423 8.416713245213032, 423 8.472131364047527, 428.875 8.472131364047527 C 434.75 8.472131364047527, 434.75 8.494328836910427, 440.625 8.494328836910427 C 446.5 8.494328836910427, 446.5 8.497934096027166, 452.375 8.497934096027166 C 458.25 8.497934096027166, 458.25 8.498616787022911, 464.125 8.498616787022911 C 470 8.498616787022911, 470 8.499399534252007, 475.875 8.499399534252007 C 481.75 8.499399534252007, 481.75 8.499732114112703, 487.625 8.499732114112703 C 493.5 8.499732114112703, 493.5 8.498557875398546, 499.375 8.498557875398546 C 505.25 8.498557875398546, 505.25 8.498306539142504, 511.125 8.498306539142504 C 517 8.498306539142504, 517 8.495359007269144, 522.875 8.495359007269144 C 528.75 8.495359007269144, 528.75 8.493723321240395, 534.625 8.493723321240395 C 540.5 8.493723321240395, 540.5 8.491878570988774, 546.375 8.491878570988774 C 552.25 8.491878570988774, 552.25 8.486969382502139, 558.125 8.486969382502139 C 564 8.486969382502139, 564 8.49492841726169, 569.875 8.49492841726169 C 575.75 8.49492841726169, 575.75 8.495145228225738, 581.625 8.495145228225738 C 587.5 8.495145228225738, 587.5 8.496491602621973, 593.375 8.496491602621973 C 599.25 8.496491602621973, 599.25 8.495556346606463, 605.125 8.495556346606463 C 611 8.495556346606463, 611 8.49161326047033, 616.875 8.49161326047033 C 622.75 8.49161326047033, 622.75 8.49724212125875, 628.625 8.49724212125875 C 634.5 8.49724212125875, 634.5 8.497078395681456, 640.375 8.497078395681456 C 646.25 8.497078395681456, 646.25 8.491181106306612, 652.125 8.491181106306612 C 658 8.491181106306612, 658 8.488467955961823, 663.875 8.488467955961823 C 669.75 8.488467955961823, 669.75 8.490138894878328, 675.625 8.490138894878328 C 681.5 8.490138894878328, 681.5 8.494450415950269, 687.375 8.494450415950269 C 693.25 8.494450415950269, 693.25 8.495575709734112, 699.125 8.495575709734112 C 705 8.495575709734112, 705 8.498754282249138, 710.875 8.498754282249138 C 716.75 8.498754282249138, 716.75 8.497518028132617, 722.625 8.497518028132617 C 728.5 8.497518028132617, 728.5 8.48720689304173, 734.375 8.48720689304173 C 740.25 8.48720689304173, 740.25 8.486872931011021, 746.125 8.486872931011021 C 752 8.486872931011021, 752 8.473235104233027, 757.875 8.473235104233027 C 763.75 8.473235104233027, 763.75 8.44170493632555, 769.625 8.44170493632555 C 775.5 8.44170493632555, 775.5 8.422490395605564, 781.375 8.422490395605564 C 787.25 8.422490395605564, 787.25 8.359515100717545, 793.125 8.359515100717545 C 799 8.359515100717545, 799 8.403561398386955, 804.875 8.403561398386955 C 810.75 8.403561398386955, 810.75 8.335111320018768, 816.625 8.335111320018768 C 822.5 8.335111320018768, 822.5 8.433036431670189, 828.375 8.433036431670189 C 834.25 8.433036431670189, 834.25 8.459978193044662, 840.125 8.459978193044662 C 846 8.459978193044662, 846 8.45866946876049, 851.875 8.45866946876049 C 857.75 8.45866946876049, 857.75 8.490756519138813, 863.625 8.490756519138813 C 869.5 8.490756519138813, 869.5 8.48545063752681, 875.375 8.48545063752681 C 881.25 8.48545063752681, 881.25 8.492170521989465, 887.125 8.492170521989465 C 893 8.492170521989465, 893 8.472418131306767, 898.875 8.472418131306767 C 904.75 8.472418131306767, 904.75 8.471449047327042, 910.625 8.471449047327042 C 916.5 8.471449047327042, 916.5 8.459713235497475, 922.375 8.459713235497475 C 928.25 8.459713235497475, 928.25 8.39109255373478, 934.125 8.39109255373478 C 940 8.39109255373478, 940 8.380379609763622, 945.875 8.380379609763622 V 9.619620390236378 C 940 9.619620390236378, 940 9.60890744626522, 934.125 9.60890744626522 C 928.25 9.60890744626522, 928.25 9.540286764502525, 922.375 9.540286764502525 C 916.5 9.540286764502525, 916.5 9.528550952672958, 910.625 9.528550952672958 C 904.75 9.528550952672958, 904.75 9.527581868693233, 898.875 9.527581868693233 C 893 9.527581868693233, 893 9.507829478010535, 887.125 9.507829478010535 C 881.25 9.507829478010535, 881.25 9.51454936247319, 875.375 9.51454936247319 C 869.5 9.51454936247319, 869.5 9.509243480861187, 863.625 9.509243480861187 C 857.75 9.509243480861187, 857.75 9.54133053123951, 851.875 9.54133053123951 C 846 9.54133053123951, 846 9.540021806955338, 840.125 9.540021806955338 C 834.25 9.540021806955338, 834.25 9.566963568329811, 828.375 9.566963568329811 C 822.5 9.566963568329811, 822.5 9.664888679981232, 816.625 9.664888679981232 C 810.75 9.664888679981232, 810.75 9.596438601613045, 804.875 9.596438601613045 C 799 9.596438601613045, 799 9.640484899282455, 793.125 9.640484899282455 C 787.25 9.640484899282455, 787.25 9.577509604394436, 781.375 9.577509604394436 C 775.5 9.577509604394436, 775.5 9.55829506367445, 769.625 9.55829506367445 C 763.75 9.55829506367445, 763.75 9.526764895766973, 757.875 9.526764895766973 C 752 9.526764895766973, 752 9.513127068988979, 746.125 9.513127068988979 C 740.25 9.513127068988979, 740.25 9.51279310695827, 734.375 9.51279310695827 C 728.5 9.51279310695827, 728.5 9.502481971867383, 722.625 9.502481971867383 C 716.75 9.502481971867383, 716.75 9.501245717750862, 710.875 9.501245717750862 C 705 9.501245717750862, 705 9.504424290265888, 699.125 9.504424290265888 C 693.25 9.504424290265888, 693.25 9.505549584049731, 687.375 9.505549584049731 C 681.5 9.505549584049731, 681.5 9.509861105121672, 675.625 9.509861105121672 C 669.75 9.509861105121672, 669.75 9.511532044038177, 663.875 9.511532044038177 C 658 9.511532044038177, 658 9.508818893693388, 652.125 9.508818893693388 C 646.25 9.508818893693388, 646.25 9.502921604318544, 640.375 9.502921604318544 C 634.5 9.502921604318544, 634.5 9.50275787874125, 628.625 9.50275787874125 C 622.75 9.50275787874125, 622.75 9.50838673952967, 616.875 9.50838673952967 C 611 9.50838673952967, 611 9.504443653393537, 605.125 9.504443653393537 C 599.25 9.504443653393537, 599.25 9.503508397378027, 593.375 9.503508397378027 C 587.5 9.503508397378027, 587.5 9.504854771774262, 581.625 9.504854771774262 C 575.75 9.504854771774262, 575.75 9.50507158273831, 569.875 9.50507158273831 C 564 9.50507158273831, 564 9.513030617497861, 558.125 9.513030617497861 C 552.25 9.513030617497861, 552.25 9.508121429011226, 546.375 9.508121429011226 C 540.5 9.508121429011226, 540.5 9.506276678759605, 534.625 9.506276678759605 C 528.75 9.506276678759605, 528.75 9.504640992730856, 522.875 9.504640992730856 C 517 9.504640992730856, 517 9.501693460857496, 511.125 9.501693460857496 C 505.25 9.501693460857496, 505.25 9.501442124601454, 499.375 9.501442124601454 C 493.5 9.501442124601454, 493.5 9.500267885887297, 487.625 9.500267885887297 C 481.75 9.500267885887297, 481.75 9.500600465747993, 475.875 9.500600465747993 C 470 9.500600465747993, 470 9.501383212977089, 464.125 9.501383212977089 C 458.25 9.501383212977089, 458.25 9.502065903972834, 452.375 9.502065903972834 C 446.5 9.502065903972834, 446.5 9.505671163089573, 440.625 9.505671163089573 C 434.75 9.505671163089573, 434.75 9.527868635952473, 428.875 9.527868635952473 C 423 9.527868635952473, 423 9.583286754786968, 417.125 9.583286754786968 C 411.25 9.583286754786968, 411.25 9.650130689144135, 405.375 9.650130689144135 C 399.5 9.650130689144135, 399.5 9.78539553284645, 393.625 9.78539553284645 C 387.75 9.78539553284645, 387.75 9.868848204612732, 381.875 9.868848204612732 C 376 9.868848204612732, 376 9.996579051017761, 370.125 9.996579051017761 C 364.25 9.996579051017761, 364.25 9.949852913618088, 358.375 9.949852913618088 C 352.5 9.949852913618088, 352.5 9.882955640554428, 346.625 9.882955640554428 C 340.75 9.882955640554428, 340.75 9.931215435266495, 334.875 9.931215435266495 C 329 9.931215435266495, 329 9.92529034614563, 323.125 9.92529034614563 C 317.25 9.92529034614563, 317.25 9.793159306049347, 311.375 9.793159306049347 C 305.5 9.793159306049347, 305.5 10.120485007762909, 299.625 10.120485007762909 C 293.75 10.120485007762909, 293.75 10.82246482372284, 287.875 10.82246482372284 C 282 10.82246482372284, 282 12.512420892715454, 276.125 12.512420892715454 C 270.25 12.512420892715454, 270.25 13.643410682678223, 264.375 13.643410682678223 C 258.5 13.643410682678223, 258.5 14.969436168670654, 252.625 14.969436168670654 C 246.75 14.969436168670654, 246.75 15.610730648040771, 240.875 15.610730648040771 C 235 15.610730648040771, 235 15.919362545013428, 229.125 15.919362545013428 C 223.25 15.919362545013428, 223.25 15.972364902496338, 217.375 15.972364902496338 C 211.5 15.972364902496338, 211.5 16.588778018951416, 205.625 16.588778018951416 C 199.75 16.588778018951416, 199.75 16.643561363220215, 193.875 16.643561363220215 C 188 16.643561363220215, 188 16.301382064819336, 182.125 16.301382064819336 C 176.25 16.301382064819336, 176.25 16.909653186798096, 170.375 16.909653186798096 C 164.5 16.909653186798096, 164.5 16.867485523223877, 158.625 16.867485523223877 C 152.75 16.867485523223877, 152.75 17.165080070495605, 146.875 17.165080070495605 C 141 17.165080070495605, 141 17.17910671234131, 135.125 17.17910671234131 C 129.25 17.17910671234131, 129.25 17.25965690612793, 123.375 17.25965690612793 C 117.5 17.25965690612793, 117.5 17.284778594970703, 111.625 17.284778594970703 C 105.75 17.284778594970703, 105.75 17.381049633026123, 99.875 17.381049633026123 C 94 17.381049633026123, 94 17.390425205230713, 88.125 17.390425205230713 C 82.25 17.390425205230713, 82.25 17.40817642211914, 76.375 17.40817642211914 C 70.5 17.40817642211914, 70.5 17.34822416305542, 64.625 17.34822416305542 C 58.75 17.34822416305542, 58.75 17.416202545166016, 52.875 17.416202545166016 C 47 17.416202545166016, 47 17.43302059173584, 41.125 17.43302059173584 C 35.25 17.43302059173584, 35.25 17.46750545501709, 29.375 17.46750545501709 C 23.5 17.46750545501709, 23.5 17.454533100128174, 17.625 17.454533100128174 C 11.75 17.454533100128174, 11.75 17.48351812362671, 5.875 17.48351812362671 C 0 17.48351812362671, 0 17.48351812362671, -5.875 17.48351812362671 " style="fill:#666" clip-path="url(#clipd658)"></path></g><g transform="translate(0, 92)" pointer-events="none"><path d="M 5.875 6.5 H 940" style="fill:none;stroke:#000;stroke-width:1px"></path><circle cx="5.875" cy="6.5" fill="black" r="1.9583333333333333"></circle><text style="font-size:8.8125px" x="52.875" y="18" text-anchor="middle">5</text><path d="M 52.875 2 v 4.5" style="fill:none;stroke:#000;stroke-width:1px"></path><text style="font-size:8.8125px" x="111.625" y="18" text-anchor="middle">10</text><path d="M 111.625 2 v 4.5" style="fill:none;stroke:#000;stroke-width:1px"></path><text style="font-size:8.8125px" x="170.375" y="18" text-anchor="middle">15</text><path d="M 170.375 2 v 4.5" style="fill:none;stroke:#000;stroke-width:1px"></path><text style="font-size:8.8125px" x="229.125" y="18" text-anchor="middle">20</text><path d="M 229.125 2 v 4.5" style="fill:none;stroke:#000;stroke-width:1px"></path><text style="font-size:8.8125px" x="287.875" y="18" text-anchor="middle">25</text><path d="M 287.875 2 v 4.5" style="fill:none;stroke:#000;stroke-width:1px"></path><text style="font-size:8.8125px" x="346.625" y="18" text-anchor="middle">30</text><path d="M 346.625 2 v 4.5" style="fill:none;stroke:#000;stroke-width:1px"></path><text style="font-size:8.8125px" x="405.375" y="18" text-anchor="middle">35</text><path d="M 405.375 2 v 4.5" style="fill:none;stroke:#000;stroke-width:1px"></path><text style="font-size:8.8125px" x="464.125" y="18" text-anchor="middle">40</text><path d="M 464.125 2 v 4.5" style="fill:none;stroke:#000;stroke-width:1px"></path><text style="font-size:8.8125px" x="522.875" y="18" text-anchor="middle">45</text><path d="M 522.875 2 v 4.5" style="fill:none;stroke:#000;stroke-width:1px"></path><text style="font-size:8.8125px" x="581.625" y="18" text-anchor="middle">50</text><path d="M 581.625 2 v 4.5" style="fill:none;stroke:#000;stroke-width:1px"></path><text style="font-size:8.8125px" x="640.375" y="18" text-anchor="middle">55</text><path d="M 640.375 2 v 4.5" style="fill:none;stroke:#000;stroke-width:1px"></path><text style="font-size:8.8125px" x="699.125" y="18" text-anchor="middle">60</text><path d="M 699.125 2 v 4.5" style="fill:none;stroke:#000;stroke-width:1px"></path><text style="font-size:8.8125px" x="757.875" y="18" text-anchor="middle">65</text><path d="M 757.875 2 v 4.5" style="fill:none;stroke:#000;stroke-width:1px"></path><text style="font-size:8.8125px" x="816.625" y="18" text-anchor="middle">70</text><path d="M 816.625 2 v 4.5" style="fill:none;stroke:#000;stroke-width:1px"></path><text style="font-size:8.8125px" x="875.375" y="18" text-anchor="middle">75</text><path d="M 875.375 2 v 4.5" style="fill:none;stroke:#000;stroke-width:1px"></path><text style="font-size:8.8125px" x="934.125" y="18" text-anchor="middle">80</text><path d="M 934.125 2 v 4.5" style="fill:none;stroke:#000;stroke-width:1px"></path></g></g><g transform="translate(0, 115)"><g transform="translate(0, 0)" pointer-events="none"><text style="font-size:13.75px;font-family:monospace" x="5.875" y="18" text-anchor="middle">N</text><text style="font-size:13.75px;font-family:monospace" x="17.625" y="18" text-anchor="middle">V</text><text style="font-size:13.75px;font-family:monospace" x="29.375" y="18" text-anchor="middle">N</text><text style="font-size:13.75px;font-family:monospace" x="41.125" y="18" text-anchor="middle">R</text><text style="font-size:13.75px;font-family:monospace" x="52.875" y="18" text-anchor="middle">N</text><text style="font-size:13.75px;font-family:monospace" x="64.625" y="18" text-anchor="middle">A</text><text style="font-size:13.75px;font-family:monospace" x="76.375" y="18" text-anchor="middle">A</text><text style="font-size:13.75px;font-family:monospace" x="88.125" y="18" text-anchor="middle">V</text><text style="font-size:13.75px;font-family:monospace" x="99.875" y="18" text-anchor="middle">E</text><text style="font-size:13.75px;font-family:monospace" x="111.625" y="18" text-anchor="middle">L</text><text style="font-size:13.75px;font-family:monospace" x="123.375" y="18" text-anchor="middle">T</text><text style="font-size:13.75px;font-family:monospace" x="135.125" y="18" text-anchor="middle">R</text><text style="font-size:13.75px;font-family:monospace" x="146.875" y="18" text-anchor="middle">R</text><text style="font-size:13.75px;font-family:monospace" x="158.625" y="18" text-anchor="middle">H</text><text style="font-size:13.75px;font-family:monospace" x="170.375" y="18" text-anchor="middle">I</text><text style="font-size:13.75px;font-family:monospace" x="182.125" y="18" text-anchor="middle">G</text><text style="font-size:13.75px;font-family:monospace" x="193.875" y="18" text-anchor="middle">R</text><text style="font-size:13.75px;font-family:monospace" x="205.625" y="18" text-anchor="middle">G</text><text style="font-size:13.75px;font-family:monospace" x="217.375" y="18" text-anchor="middle">V</text><text style="font-size:13.75px;font-family:monospace" x="229.125" y="18" text-anchor="middle">R</text><text style="font-size:13.75px;font-family:monospace" x="240.875" y="18" text-anchor="middle">L</text><text style="font-size:13.75px;font-family:monospace" x="252.625" y="18" text-anchor="middle">Y</text><text style="font-size:13.75px;font-family:monospace" x="264.375" y="18" text-anchor="middle">Y</text><text style="font-size:13.75px;font-family:monospace" x="276.125" y="18" text-anchor="middle">I</text><text style="font-size:13.75px;font-family:monospace" x="287.875" y="18" text-anchor="middle">G</text><text style="font-size:13.75px;font-family:monospace" x="299.625" y="18" text-anchor="middle">G</text><text style="font-size:13.75px;font-family:monospace" x="311.375" y="18" text-anchor="middle">E</text><text style="font-size:13.75px;font-family:monospace" x="323.125" y="18" text-anchor="middle">V</text><text style="font-size:13.75px;font-family:monospace" x="334.875" y="18" text-anchor="middle">F</text><text style="font-size:13.75px;font-family:monospace" x="346.625" y="18" text-anchor="middle">A</text><text style="font-size:13.75px;font-family:monospace" x="358.375" y="18" text-anchor="middle">E</text><text style="font-size:13.75px;font-family:monospace" x="370.125" y="18" text-anchor="middle">C</text><text style="font-size:13.75px;font-family:monospace" x="381.875" y="18" text-anchor="middle">L</text><text style="font-size:13.75px;font-family:monospace" x="393.625" y="18" text-anchor="middle">S</text><text style="font-size:13.75px;font-family:monospace" x="405.375" y="18" text-anchor="middle">D</text><text style="font-size:13.75px;font-family:monospace" x="417.125" y="18" text-anchor="middle">S</text><text style="font-size:13.75px;font-family:monospace" x="428.875" y="18" text-anchor="middle">A</text><text style="font-size:13.75px;font-family:monospace" x="440.625" y="18" text-anchor="middle">I</text><text style="font-size:13.75px;font-family:monospace" x="452.375" y="18" text-anchor="middle">F</text><text style="font-size:13.75px;font-family:monospace" x="464.125" y="18" text-anchor="middle">V</text><text style="font-size:13.75px;font-family:monospace" x="475.875" y="18" text-anchor="middle">Q</text><text style="font-size:13.75px;font-family:monospace" x="487.625" y="18" text-anchor="middle">S</text><text style="font-size:13.75px;font-family:monospace" x="499.375" y="18" text-anchor="middle">P</text><text style="font-size:13.75px;font-family:monospace" x="511.125" y="18" text-anchor="middle">N</text><text style="font-size:13.75px;font-family:monospace" x="522.875" y="18" text-anchor="middle">C</text><text style="font-size:13.75px;font-family:monospace" x="534.625" y="18" text-anchor="middle">N</text><text style="font-size:13.75px;font-family:monospace" x="546.375" y="18" text-anchor="middle">Q</text><text style="font-size:13.75px;font-family:monospace" x="558.125" y="18" text-anchor="middle">R</text><text style="font-size:13.75px;font-family:monospace" x="569.875" y="18" text-anchor="middle">Y</text><text style="font-size:13.75px;font-family:monospace" x="581.625" y="18" text-anchor="middle">G</text><text style="font-size:13.75px;font-family:monospace" x="593.375" y="18" text-anchor="middle">W</text><text style="font-size:13.75px;font-family:monospace" x="605.125" y="18" text-anchor="middle">H</text><text style="font-size:13.75px;font-family:monospace" x="616.875" y="18" text-anchor="middle">P</text><text style="font-size:13.75px;font-family:monospace" x="628.625" y="18" text-anchor="middle">A</text><text style="font-size:13.75px;font-family:monospace" x="640.375" y="18" text-anchor="middle">T</text><text style="font-size:13.75px;font-family:monospace" x="652.125" y="18" text-anchor="middle">V</text><text style="font-size:13.75px;font-family:monospace" x="663.875" y="18" text-anchor="middle">C</text><text style="font-size:13.75px;font-family:monospace" x="675.625" y="18" text-anchor="middle">K</text><text style="font-size:13.75px;font-family:monospace" x="687.375" y="18" text-anchor="middle">I</text><text style="font-size:13.75px;font-family:monospace" x="699.125" y="18" text-anchor="middle">P</text><text style="font-size:13.75px;font-family:monospace" x="710.875" y="18" text-anchor="middle">P</text><text style="font-size:13.75px;font-family:monospace" x="722.625" y="18" text-anchor="middle">G</text><text style="font-size:13.75px;font-family:monospace" x="734.375" y="18" text-anchor="middle">C</text><text style="font-size:13.75px;font-family:monospace" x="746.125" y="18" text-anchor="middle">N</text><text style="font-size:13.75px;font-family:monospace" x="757.875" y="18" text-anchor="middle">L</text><text style="font-size:13.75px;font-family:monospace" x="769.625" y="18" text-anchor="middle">K</text><text style="font-size:13.75px;font-family:monospace" x="781.375" y="18" text-anchor="middle">I</text><text style="font-size:13.75px;font-family:monospace" x="793.125" y="18" text-anchor="middle">F</text><text style="font-size:13.75px;font-family:monospace" x="804.875" y="18" text-anchor="middle">N</text><text style="font-size:13.75px;font-family:monospace" x="816.625" y="18" text-anchor="middle">N</text><text style="font-size:13.75px;font-family:monospace" x="828.375" y="18" text-anchor="middle">Q</text><text style="font-size:13.75px;font-family:monospace" x="840.125" y="18" text-anchor="middle">E</text><text style="font-size:13.75px;font-family:monospace" x="851.875" y="18" text-anchor="middle">F</text><text style="font-size:13.75px;font-family:monospace" x="863.625" y="18" text-anchor="middle">A</text><text style="font-size:13.75px;font-family:monospace" x="875.375" y="18" text-anchor="middle">A</text><text style="font-size:13.75px;font-family:monospace" x="887.125" y="18" text-anchor="middle">L</text><text style="font-size:13.75px;font-family:monospace" x="898.875" y="18" text-anchor="middle">L</text><text style="font-size:13.75px;font-family:monospace" x="910.625" y="18" text-anchor="middle">A</text><text style="font-size:13.75px;font-family:monospace" x="922.375" y="18" text-anchor="middle">Q</text><text style="font-size:13.75px;font-family:monospace" x="934.125" y="18" text-anchor="middle">S</text></g><g transform="translate(0, 23)" pointer-events="none"><defs><linearGradient id="rsaGradient3618" x1="0" x2="0" y1="0" y2="18" gradientUnits="userSpaceOnUse"><stop offset="0%" stop-color="#990000"></stop><stop offset="75%" stop-color="#990000"></stop><stop offset="75%" stop-color="#3366cc"></stop><stop offset="100%" stop-color="#3366cc"></stop></linearGradient><clipPath id="clip3618"><rect x="0" y="0" width="940" height="18"></rect></clipPath></defs><path d="M -5.875 8.840796649456024 C 0 8.840796649456024, 0 12.032284915447235, 5.875 12.032284915447235 C 11.75 12.032284915447235, 11.75 8.668572664260864 17.625 8.668572664260864 C 23.5 8.668572664260864, 23.5 7.055288672447205 29.375 7.055288672447205 C 35.25 7.055288672447205, 35.25 11.173446387052536 41.125 11.173446387052536 C 47 11.173446387052536, 47 9.202041745185852 52.875 9.202041745185852 C 58.75 9.202041745185852, 58.75 5.555264949798584 64.625 5.555264949798584 C 70.5 5.555264949798584, 70.5 12.461710512638092 76.375 12.461710512638092 C 82.25 12.461710512638092, 82.25 16.70511355996132 88.125 16.70511355996132 C 94 16.70511355996132, 94 9.444289892911911 99.875 9.444289892911911 C 105.75 9.444289892911911, 105.75 10.180387407541275 111.625 10.180387407541275 C 117.5 10.180387407541275, 117.5 16.846087008714676 123.375 16.846087008714676 C 129.25 16.846087008714676, 129.25 12.431556344032288 135.125 12.431556344032288 C 141 12.431556344032288, 141 6.6511605978012085 146.875 6.6511605978012085 C 152.75 6.6511605978012085, 152.75 11.609042346477509 158.625 11.609042346477509 C 164.5 11.609042346477509, 164.5 16.220815867185593 170.375 16.220815867185593 C 176.25 16.220815867185593, 176.25 12.680413603782654 182.125 12.680413603782654 C 188 12.680413603782654, 188 7.757443368434906 193.875 7.757443368434906 C 199.75 7.757443368434906, 199.75 15.99339959025383 205.625 15.99339959025383 C 211.5 15.99339959025383, 211.5 16.981186985969543 217.375 16.981186985969543 C 223.25 16.981186985969543, 223.25 11.052125990390778 229.125 11.052125990390778 C 235 11.052125990390778, 235 16.304963618516922 240.875 16.304963618516922 C 246.75 16.304963618516922, 246.75 12.083652079105377 252.625 12.083652079105377 C 258.5 12.083652079105377, 258.5 11.930397689342499 264.375 11.930397689342499 C 270.25 11.930397689342499, 270.25 11.316075533628464 276.125 11.316075533628464 C 282 11.316075533628464, 282 2.9367291927337646 287.875 2.9367291927337646 C 293.75 2.9367291927337646, 293.75 6.714425683021545 299.625 6.714425683021545 C 305.5 6.714425683021545, 305.5 10.021667391061783 311.375 10.021667391061783 C 317.25 10.021667391061783, 317.25 16.880007028579712 323.125 16.880007028579712 C 329 16.880007028579712, 329 15.52057272195816 334.875 15.52057272195816 C 340.75 15.52057272195816, 340.75 17.421979039907455 346.625 17.421979039907455 C 352.5 17.421979039907455, 352.5 13.320560187101364 358.375 13.320560187101364 C 364.25 13.320560187101364, 364.25 16.867226541042328 370.125 16.867226541042328 C 376 16.867226541042328, 376 11.922232180833817 381.875 11.922232180833817 C 387.75 11.922232180833817, 387.75 16.38074219226837 393.625 16.38074219226837 C 399.5 16.38074219226837, 399.5 3.6493520736694336 405.375 3.6493520736694336 C 411.25 3.6493520736694336, 411.25 13.540343940258026 417.125 13.540343940258026 C 423 13.540343940258026, 423 15.903004467487335 428.875 15.903004467487335 C 434.75 15.903004467487335, 434.75 17.35407719016075 440.625 17.35407719016075 C 446.5 17.35407719016075, 446.5 16.2895790040493 452.375 16.2895790040493 C 458.25 16.2895790040493, 458.25 17.395619601011276 464.125 17.395619601011276 C 470 17.395619601011276, 470 14.645214200019836 475.875 14.645214200019836 C 481.75 14.645214200019836, 481.75 17.25393432378769 487.625 17.25393432378769 C 493.5 17.25393432378769, 493.5 14.334671556949615 499.375 14.334671556949615 C 505.25 14.334671556949615, 505.25 12.490191757678986 511.125 12.490191757678986 C 517 12.490191757678986, 517 16.908992379903793 522.875 16.908992379903793 C 528.75 16.908992379903793, 528.75 15.888707607984543 534.625 15.888707607984543 C 540.5 15.888707607984543, 540.5 7.0757275223731995 546.375 7.0757275223731995 C 552.25 7.0757275223731995, 552.25 5.625896573066711 558.125 5.625896573066711 C 564 5.625896573066711, 564 9.78446739912033 569.875 9.78446739912033 C 575.75 9.78446739912033, 575.75 6.614698767662048 581.625 6.614698767662048 C 587.5 6.614698767662048, 587.5 13.245063811540604 593.375 13.245063811540604 C 599.25 13.245063811540604, 599.25 8.978848814964294 605.125 8.978848814964294 C 611 8.978848814964294, 611 11.996047019958496 616.875 11.996047019958496 C 622.75 11.996047019958496, 622.75 8.323527872562408 628.625 8.323527872562408 C 634.5 8.323527872562408, 634.5 13.25372177362442 640.375 13.25372177362442 C 646.25 13.25372177362442, 646.25 15.953080713748932 652.125 15.953080713748932 C 658 15.953080713748932, 658 15.045899152755737 663.875 15.045899152755737 C 669.75 15.045899152755737, 669.75 11.10606536269188 675.625 11.10606536269188 C 681.5 11.10606536269188, 681.5 17.020006716251373 687.375 17.020006716251373 C 693.25 17.020006716251373, 693.25 12.926983892917633 699.125 12.926983892917633 C 705 12.926983892917633, 705 9.448604434728622 710.875 9.448604434728622 C 716.75 9.448604434728622, 716.75 10.058613061904907 722.625 10.058613061904907 C 728.5 10.058613061904907, 728.5 15.813639849424362 734.375 15.813639849424362 C 740.25 15.813639849424362, 740.25 14.55628326535225 746.125 14.55628326535225 C 752 14.55628326535225, 752 17.31112226843834 757.875 17.31112226843834 C 763.75 17.31112226843834, 763.75 15.631352990865707 769.625 15.631352990865707 C 775.5 15.631352990865707, 775.5 17.329290360212326 781.375 17.329290360212326 C 787.25 17.329290360212326, 787.25 15.947205722332 793.125 15.947205722332 C 799 15.947205722332, 799 12.982286632061005 804.875 12.982286632061005 C 810.75 12.982286632061005, 810.75 12.453251659870148 816.625 12.453251659870148 C 822.5 12.453251659870148, 822.5 5.710704982280731 828.375 5.710704982280731 C 834.25 5.710704982280731, 834.25 9.740691721439362 840.125 9.740691721439362 C 846 9.740691721439362, 846 16.49821212887764 851.875 16.49821212887764 C 857.75 16.49821212887764, 857.75 12.237455666065216 863.625 12.237455666065216 C 869.5 12.237455666065216, 869.5 8.621070146560669 875.375 8.621070146560669 C 881.25 8.621070146560669, 881.25 14.21299347281456 887.125 14.21299347281456 C 893 14.21299347281456, 893 15.635352402925491 898.875 15.635352402925491 C 904.75 15.635352402925491, 904.75 9.72152554988861 910.625 9.72152554988861 C 916.5 9.72152554988861, 916.5 8.283984661102295 922.375 8.283984661102295 C 928.25 8.283984661102295, 928.25 15.583795249462128 934.125 15.583795249462128 C 940 15.583795249462128, 940 10.867860198020935 945.875 10.867860198020935 V 13.25 H -5.875" style="fill:url(#rsaGradient3618)" clip-path="url(#clip3618)"></path></g><g transform="translate(0, 46)" pointer-events="none"><defs><g id="icon-ss-Hb-7176"><path d="M 7.05 0.5 H 2.35 Q 0 0.5, -7.05 17.5 H -2.35 Q 0 17.5, 7.05 0.5" fill="#ff6600"></path></g><g id="icon-ss-Hf-7176"><path d="M -7.05 0.5 H -2.35 Q 0 0.5, 7.05 17.5 H 2.35 Q 0 17.5, -7.05 0.5" fill="#ff9900"></path></g><g id="icon-ss-Hef-7176" style="fill:#ff9900"><path d="M 0 7.2 L 9.4 17.5 H 4.7 Q 2.35 17.5, 0 10.799999999999999"></path></g><g id="icon-ss-Heb-7176"><path d="M 11.75 7.2 L 2.35 17.5 H 7.05 Q 9.4 17.5, 11.75 10.799999999999999" fill="#ff6600"></path></g><clipPath id="clip7176"><rect x="0" y="0" width="940" height="18"></rect></clipPath></defs><g clip-path="url(#clip7176)"><rect width="58.75" height="3.6" y="7.2" x="0" fill="#cc3399"></rect><use xlink:href="#icon-ss-Hb-7176" transform="translate(70.5, 0)"></use><use xlink:href="#icon-ss-Hef-7176" transform="translate(58.75, 0)"></use><use xlink:href="#icon-ss-Hb-7176" transform="translate(94, 0)"></use><use xlink:href="#icon-ss-Hf-7176" transform="translate(82.25, 0)"></use><use xlink:href="#icon-ss-Hb-7176" transform="translate(117.5, 0)"></use><use xlink:href="#icon-ss-Hf-7176" transform="translate(105.75, 0)"></use><use xlink:href="#icon-ss-Hb-7176" transform="translate(141, 0)"></use><use xlink:href="#icon-ss-Hf-7176" transform="translate(129.25, 0)"></use><use xlink:href="#icon-ss-Hb-7176" transform="translate(164.5, 0)"></use><use xlink:href="#icon-ss-Hf-7176" transform="translate(152.75, 0)"></use><use xlink:href="#icon-ss-Hef-7176" transform="translate(164.5, 0) rotate(180 5.875 9)"></use><rect width="35.25" height="3.6" y="7.2" x="176.25" fill="#cc3399"></rect><rect width="5.875" height="3.6" y="7.2" x="276.125" fill="#cc3399"></rect><path d="M 211.5 3.6 H 275.53749999999997 V 0.5 L 282 9 L 275.53749999999997 17.5 V 14.4 H 211.5 " fill="#660099"></path><rect width="23.5" height="3.6" y="7.2" x="282" fill="#cc3399"></rect><rect width="5.875" height="3.6" y="7.2" x="370.125" fill="#cc3399"></rect><path d="M 305.5 3.6 H 369.53749999999997 V 0.5 L 376 9 L 369.53749999999997 17.5 V 14.4 H 305.5 " fill="#660099"></path><rect width="58.75" height="3.6" y="7.2" x="376" fill="#cc3399"></rect><rect width="5.875" height="3.6" y="7.2" x="475.875" fill="#cc3399"></rect><path d="M 434.75 3.6 H 475.2875 V 0.5 L 481.75 9 L 475.2875 17.5 V 14.4 H 434.75 " fill="#660099"></path><rect width="11.75" height="3.6" y="7.2" x="481.75" fill="#cc3399"></rect><use xlink:href="#icon-ss-Hb-7176" transform="translate(505.25, 0)"></use><use xlink:href="#icon-ss-Hef-7176" transform="translate(493.5, 0)"></use><use xlink:href="#icon-ss-Hb-7176" transform="translate(528.75, 0)"></use><use xlink:href="#icon-ss-Hf-7176" transform="translate(517, 0)"></use><use xlink:href="#icon-ss-Hb-7176" transform="translate(552.25, 0)"></use><use xlink:href="#icon-ss-Hf-7176" transform="translate(540.5, 0)"></use><use xlink:href="#icon-ss-Heb-7176" transform="translate(564, 0)"></use><use xlink:href="#icon-ss-Hf-7176" transform="translate(564, 0)"></use><rect width="47" height="3.6" y="7.2" x="575.75" fill="#cc3399"></rect><use xlink:href="#icon-ss-Hb-7176" transform="translate(634.5, 0)"></use><use xlink:href="#icon-ss-Hef-7176" transform="translate(622.75, 0)"></use><use xlink:href="#icon-ss-Hef-7176" transform="translate(634.5, 0) rotate(180 5.875 9)"></use><rect width="5.875" height="3.6" y="7.2" x="687.375" fill="#cc3399"></rect><path d="M 646.25 3.6 H 686.7875 V 0.5 L 693.25 9 L 686.7875 17.5 V 14.4 H 646.25 " fill="#660099"></path><rect width="47" height="3.6" y="7.2" x="693.25" fill="#cc3399"></rect><rect width="5.875" height="3.6" y="7.2" x="793.125" fill="#cc3399"></rect><path d="M 740.25 3.6 H 792.5375 V 0.5 L 799 9 L 792.5375 17.5 V 14.4 H 740.25 " fill="#660099"></path><rect width="11.75" height="3.6" y="7.2" x="799" fill="#cc3399"></rect><use xlink:href="#icon-ss-Hb-7176" transform="translate(822.5, 0)"></use><use xlink:href="#icon-ss-Hef-7176" transform="translate(810.75, 0)"></use><use xlink:href="#icon-ss-Hb-7176" transform="translate(846, 0)"></use><use xlink:href="#icon-ss-Hf-7176" transform="translate(834.25, 0)"></use><use xlink:href="#icon-ss-Hb-7176" transform="translate(869.5, 0)"></use><use xlink:href="#icon-ss-Hf-7176" transform="translate(857.75, 0)"></use><use xlink:href="#icon-ss-Hb-7176" transform="translate(893, 0)"></use><use xlink:href="#icon-ss-Hf-7176" transform="translate(881.25, 0)"></use><use xlink:href="#icon-ss-Hb-7176" transform="translate(916.5, 0)"></use><use xlink:href="#icon-ss-Hf-7176" transform="translate(904.75, 0)"></use><use xlink:href="#icon-ss-Hb-7176" transform="translate(940, 0)"></use><use xlink:href="#icon-ss-Hf-7176" transform="translate(928.25, 0)"></use></g></g><g transform="translate(0, 69)" pointer-events="none"><defs><clipPath id="clipdd59"><rect x="0" y="0" width="940" height="18"></rect></clipPath></defs><path d="M -5.875 8.39109255373478 C 0 8.39109255373478, 0 8.380379609763622, 5.875 8.380379609763622 C 11.75 8.380379609763622, 11.75 8.305168852210045, 17.625 8.305168852210045 C 23.5 8.305168852210045, 23.5 8.37610699981451, 29.375 8.37610699981451 C 35.25 8.37610699981451, 35.25 8.369965627789497, 41.125 8.369965627789497 C 47 8.369965627789497, 47 8.438550189137459, 52.875 8.438550189137459 C 58.75 8.438550189137459, 58.75 8.468058165162802, 64.625 8.468058165162802 C 70.5 8.468058165162802, 70.5 8.478862285614014, 76.375 8.478862285614014 C 82.25 8.478862285614014, 82.25 8.488175662234426, 88.125 8.488175662234426 C 94 8.488175662234426, 94 8.49307431653142, 99.875 8.49307431653142 C 105.75 8.49307431653142, 105.75 8.493838464841247, 111.625 8.493838464841247 C 117.5 8.493838464841247, 117.5 8.495668130926788, 123.375 8.495668130926788 C 129.25 8.495668130926788, 129.25 8.490525755099952, 135.125 8.490525755099952 C 141 8.490525755099952, 141 8.487335616722703, 146.875 8.487335616722703 C 152.75 8.487335616722703, 152.75 8.490959682501853, 158.625 8.490959682501853 C 164.5 8.490959682501853, 164.5 8.491687634028494, 170.375 8.491687634028494 C 176.25 8.491687634028494, 176.25 8.476317690685391, 182.125 8.476317690685391 C 188 8.476317690685391, 188 8.49236318282783, 193.875 8.49236318282783 C 199.75 8.49236318282783, 199.75 8.496855366742238, 205.625 8.496855366742238 C 211.5 8.496855366742238, 211.5 8.49915436009178, 217.375 8.49915436009178 C 223.25 8.49915436009178, 223.25 8.499191575916484, 229.125 8.499191575916484 C 235 8.499191575916484, 235 8.499870418309001, 240.875 8.499870418309001 C 246.75 8.499870418309001, 246.75 8.499647823977284, 252.625 8.499647823977284 C 258.5 8.499647823977284, 258.5 8.499135448597372, 264.375 8.499135448597372 C 270.25 8.499135448597372, 270.25 8.493206867016852, 276.125 8.493206867016852 C 282 8.493206867016852, 282 8.476386597380042, 287.875 8.476386597380042 C 293.75 8.476386597380042, 293.75 8.470916166901588, 299.625 8.470916166901588 C 305.5 8.470916166901588, 305.5 8.47776124253869, 311.375 8.47776124253869 C 317.25 8.47776124253869, 317.25 8.49774576141499, 323.125 8.49774576141499 C 329 8.49774576141499, 329 8.499088675307576, 334.875 8.499088675307576 C 340.75 8.499088675307576, 340.75 8.499720209394582, 346.625 8.499720209394582 C 352.5 8.499720209394582, 352.5 8.49855097278487, 358.375 8.49855097278487 C 364.25 8.49855097278487, 364.25 8.497815439943224, 370.125 8.497815439943224 C 376 8.497815439943224, 376 8.491157315671444, 381.875 8.491157315671444 C 387.75 8.491157315671444, 387.75 8.497449089307338, 393.625 8.497449089307338 C 399.5 8.497449089307338, 399.5 8.497280122479424, 405.375 8.497280122479424 C 411.25 8.497280122479424, 411.25 8.497646876145154, 417.125 8.497646876145154 C 423 8.497646876145154, 423 8.499152207514271, 428.875 8.499152207514271 C 434.75 8.499152207514271, 434.75 8.499297134578228, 440.625 8.499297134578228 C 446.5 8.499297134578228, 446.5 8.499059387831949, 452.375 8.499059387831949 C 458.25 8.499059387831949, 458.25 8.4997177287878, 464.125 8.4997177287878 C 470 8.4997177287878, 470 8.498258085804991, 475.875 8.498258085804991 C 481.75 8.498258085804991, 481.75 8.49900403409265, 487.625 8.49900403409265 C 493.5 8.49900403409265, 493.5 8.494217526633292, 499.375 8.494217526633292 C 505.25 8.494217526633292, 505.25 8.484482023864985, 511.125 8.484482023864985 C 517 8.484482023864985, 517 8.488819799385965, 522.875 8.488819799385965 C 528.75 8.488819799385965, 528.75 8.46371728926897, 534.625 8.46371728926897 C 540.5 8.46371728926897, 540.5 8.431449763476849, 546.375 8.431449763476849 C 552.25 8.431449763476849, 552.25 8.418945379555225, 558.125 8.418945379555225 C 564 8.418945379555225, 564 8.412538640201092, 569.875 8.412538640201092 C 575.75 8.412538640201092, 575.75 8.436342842876911, 581.625 8.436342842876911 C 587.5 8.436342842876911, 587.5 8.43383625894785, 593.375 8.43383625894785 C 599.25 8.43383625894785, 599.25 8.467649169266224, 605.125 8.467649169266224 C 611 8.467649169266224, 611 8.473270315676928, 616.875 8.473270315676928 C 622.75 8.473270315676928, 622.75 8.476014589890838, 628.625 8.476014589890838 C 634.5 8.476014589890838, 634.5 8.490611577406526, 640.375 8.490611577406526 C 646.25 8.490611577406526, 646.25 8.494450918864459, 652.125 8.494450918864459 C 658 8.494450918864459, 658 8.4964520749636, 663.875 8.4964520749636 C 669.75 8.4964520749636, 669.75 8.49940493243048, 675.625 8.49940493243048 C 681.5 8.49940493243048, 681.5 8.499223538150545, 687.375 8.499223538150545 C 693.25 8.499223538150545, 693.25 8.498840535059571, 699.125 8.498840535059571 C 705 8.498840535059571, 705 8.498165339115076, 710.875 8.498165339115076 C 716.75 8.498165339115076, 716.75 8.497226113220677, 722.625 8.497226113220677 C 728.5 8.497226113220677, 728.5 8.496099030366167, 734.375 8.496099030366167 C 740.25 8.496099030366167, 740.25 8.498729642713442, 746.125 8.498729642713442 C 752 8.498729642713442, 752 8.4996877865633, 757.875 8.4996877865633 C 763.75 8.4996877865633, 763.75 8.499760559308925, 769.625 8.499760559308925 C 775.5 8.499760559308925, 775.5 8.499894831096753, 781.375 8.499894831096753 C 787.25 8.499894831096753, 787.25 8.497918851906434, 793.125 8.497918851906434 C 799 8.497918851906434, 799 8.497186396969482, 804.875 8.497186396969482 C 810.75 8.497186396969482, 810.75 8.48875340912491, 816.625 8.48875340912491 C 822.5 8.48875340912491, 822.5 8.47004077769816, 828.375 8.47004077769816 C 834.25 8.47004077769816, 834.25 8.48923939652741, 840.125 8.48923939652741 C 846 8.48923939652741, 846 8.491083125583827, 851.875 8.491083125583827 C 857.75 8.491083125583827, 857.75 8.489692700095475, 863.625 8.489692700095475 C 869.5 8.489692700095475, 869.5 8.4932376826182, 875.375 8.4932376826182 C 881.25 8.4932376826182, 881.25 8.490687726065516, 887.125 8.490687726065516 C 893 8.490687726065516, 893 8.47123340331018, 898.875 8.47123340331018 C 904.75 8.47123340331018, 904.75 8.443542938679457, 910.625 8.443542938679457 C 916.5 8.443542938679457, 916.5 8.427656784653664, 922.375 8.427656784653664 C 928.25 8.427656784653664, 928.25 8.329610168933868, 934.125 8.329610168933868 C 940 8.329610168933868, 940 8.115567654371262, 945.875 8.115567654371262 V 9.884432345628738 C 940 9.884432345628738, 940 9.670389831066132, 934.125 9.670389831066132 C 928.25 9.670389831066132, 928.25 9.572343215346336, 922.375 9.572343215346336 C 916.5 9.572343215346336, 916.5 9.556457061320543, 910.625 9.556457061320543 C 904.75 9.556457061320543, 904.75 9.52876659668982, 898.875 9.52876659668982 C 893 9.52876659668982, 893 9.509312273934484, 887.125 9.509312273934484 C 881.25 9.509312273934484, 881.25 9.5067623173818, 875.375 9.5067623173818 C 869.5 9.5067623173818, 869.5 9.510307299904525, 863.625 9.510307299904525 C 857.75 9.510307299904525, 857.75 9.508916874416173, 851.875 9.508916874416173 C 846 9.508916874416173, 846 9.51076060347259, 840.125 9.51076060347259 C 834.25 9.51076060347259, 834.25 9.52995922230184, 828.375 9.52995922230184 C 822.5 9.52995922230184, 822.5 9.51124659087509, 816.625 9.51124659087509 C 810.75 9.51124659087509, 810.75 9.502813603030518, 804.875 9.502813603030518 C 799 9.502813603030518, 799 9.502081148093566, 793.125 9.502081148093566 C 787.25 9.502081148093566, 787.25 9.500105168903247, 781.375 9.500105168903247 C 775.5 9.500105168903247, 775.5 9.500239440691075, 769.625 9.500239440691075 C 763.75 9.500239440691075, 763.75 9.5003122134367, 757.875 9.5003122134367 C 752 9.5003122134367, 752 9.501270357286558, 746.125 9.501270357286558 C 740.25 9.501270357286558, 740.25 9.503900969633833, 734.375 9.503900969633833 C 728.5 9.503900969633833, 728.5 9.502773886779323, 722.625 9.502773886779323 C 716.75 9.502773886779323, 716.75 9.501834660884924, 710.875 9.501834660884924 C 705 9.501834660884924, 705 9.501159464940429, 699.125 9.501159464940429 C 693.25 9.501159464940429, 693.25 9.500776461849455, 687.375 9.500776461849455 C 681.5 9.500776461849455, 681.5 9.50059506756952, 675.625 9.50059506756952 C 669.75 9.50059506756952, 669.75 9.5035479250364, 663.875 9.5035479250364 C 658 9.5035479250364, 658 9.505549081135541, 652.125 9.505549081135541 C 646.25 9.505549081135541, 646.25 9.509388422593474, 640.375 9.509388422593474 C 634.5 9.509388422593474, 634.5 9.523985410109162, 628.625 9.523985410109162 C 622.75 9.523985410109162, 622.75 9.526729684323072, 616.875 9.526729684323072 C 611 9.526729684323072, 611 9.532350830733776, 605.125 9.532350830733776 C 599.25 9.532350830733776, 599.25 9.56616374105215, 593.375 9.56616374105215 C 587.5 9.56616374105215, 587.5 9.563657157123089, 581.625 9.563657157123089 C 575.75 9.563657157123089, 575.75 9.587461359798908, 569.875 9.587461359798908 C 564 9.587461359798908, 564 9.581054620444775, 558.125 9.581054620444775 C 552.25 9.581054620444775, 552.25 9.568550236523151, 546.375 9.568550236523151 C 540.5 9.568550236523151, 540.5 9.53628271073103, 534.625 9.53628271073103 C 528.75 9.53628271073103, 528.75 9.511180200614035, 522.875 9.511180200614035 C 517 9.511180200614035, 517 9.515517976135015, 511.125 9.515517976135015 C 505.25 9.515517976135015, 505.25 9.505782473366708, 499.375 9.505782473366708 C 493.5 9.505782473366708, 493.5 9.50099596590735, 487.625 9.50099596590735 C 481.75 9.50099596590735, 481.75 9.501741914195009, 475.875 9.501741914195009 C 470 9.501741914195009, 470 9.5002822712122, 464.125 9.5002822712122 C 458.25 9.5002822712122, 458.25 9.500940612168051, 452.375 9.500940612168051 C 446.5 9.500940612168051, 446.5 9.500702865421772, 440.625 9.500702865421772 C 434.75 9.500702865421772, 434.75 9.500847792485729, 428.875 9.500847792485729 C 423 9.500847792485729, 423 9.502353123854846, 417.125 9.502353123854846 C 411.25 9.502353123854846, 411.25 9.502719877520576, 405.375 9.502719877520576 C 399.5 9.502719877520576, 399.5 9.502550910692662, 393.625 9.502550910692662 C 387.75 9.502550910692662, 387.75 9.508842684328556, 381.875 9.508842684328556 C 376 9.508842684328556, 376 9.502184560056776, 370.125 9.502184560056776 C 364.25 9.502184560056776, 364.25 9.50144902721513, 358.375 9.50144902721513 C 352.5 9.50144902721513, 352.5 9.500279790605418, 346.625 9.500279790605418 C 340.75 9.500279790605418, 340.75 9.500911324692424, 334.875 9.500911324692424 C 329 9.500911324692424, 329 9.50225423858501, 323.125 9.50225423858501 C 317.25 9.50225423858501, 317.25 9.52223875746131, 311.375 9.52223875746131 C 305.5 9.52223875746131, 305.5 9.529083833098412, 299.625 9.529083833098412 C 293.75 9.529083833098412, 293.75 9.523613402619958, 287.875 9.523613402619958 C 282 9.523613402619958, 282 9.506793132983148, 276.125 9.506793132983148 C 270.25 9.506793132983148, 270.25 9.500864551402628, 264.375 9.500864551402628 C 258.5 9.500864551402628, 258.5 9.500352176022716, 252.625 9.500352176022716 C 246.75 9.500352176022716, 246.75 9.500129581690999, 240.875 9.500129581690999 C 235 9.500129581690999, 235 9.500808424083516, 229.125 9.500808424083516 C 223.25 9.500808424083516, 223.25 9.50084563990822, 217.375 9.50084563990822 C 211.5 9.50084563990822, 211.5 9.503144633257762, 205.625 9.503144633257762 C 199.75 9.503144633257762, 199.75 9.50763681717217, 193.875 9.50763681717217 C 188 9.50763681717217, 188 9.523682309314609, 182.125 9.523682309314609 C 176.25 9.523682309314609, 176.25 9.508312365971506, 170.375 9.508312365971506 C 164.5 9.508312365971506, 164.5 9.509040317498147, 158.625 9.509040317498147 C 152.75 9.509040317498147, 152.75 9.512664383277297, 146.875 9.512664383277297 C 141 9.512664383277297, 141 9.509474244900048, 135.125 9.509474244900048 C 129.25 9.509474244900048, 129.25 9.504331869073212, 123.375 9.504331869073212 C 117.5 9.504331869073212, 117.5 9.506161535158753, 111.625 9.506161535158753 C 105.75 9.506161535158753, 105.75 9.50692568346858, 99.875 9.50692568346858 C 94 9.50692568346858, 94 9.511824337765574, 88.125 9.511824337765574 C 82.25 9.511824337765574, 82.25 9.521137714385986, 76.375 9.521137714385986 C 70.5 9.521137714385986, 70.5 9.531941834837198, 64.625 9.531941834837198 C 58.75 9.531941834837198, 58.75 9.561449810862541, 52.875 9.561449810862541 C 47 9.561449810862541, 47 9.630034372210503, 41.125 9.630034372210503 C 35.25 9.630034372210503, 35.25 9.62389300018549, 29.375 9.62389300018549 C 23.5 9.62389300018549, 23.5 9.694831147789955, 17.625 9.694831147789955 C 11.75 9.694831147789955, 11.75 9.619620390236378, 5.875 9.619620390236378 C 0 9.619620390236378, 0 9.60890744626522, -5.875 9.60890744626522 " style="fill:#666" clip-path="url(#clipdd59)"></path></g><g transform="translate(0, 92)" pointer-events="none"><path d="M 0 6.5 H 940" style="fill:none;stroke:#000;stroke-width:1px"></path><text style="font-size:8.8125px" x="52.875" y="18" text-anchor="middle">85</text><path d="M 52.875 2 v 4.5" style="fill:none;stroke:#000;stroke-width:1px"></path><text style="font-size:8.8125px" x="111.625" y="18" text-anchor="middle">90</text><path d="M 111.625 2 v 4.5" style="fill:none;stroke:#000;stroke-width:1px"></path><text style="font-size:8.8125px" x="170.375" y="18" text-anchor="middle">95</text><path d="M 170.375 2 v 4.5" style="fill:none;stroke:#000;stroke-width:1px"></path><text style="font-size:8.8125px" x="229.125" y="18" text-anchor="middle">100</text><path d="M 229.125 2 v 4.5" style="fill:none;stroke:#000;stroke-width:1px"></path><text style="font-size:8.8125px" x="287.875" y="18" text-anchor="middle">105</text><path d="M 287.875 2 v 4.5" style="fill:none;stroke:#000;stroke-width:1px"></path><text style="font-size:8.8125px" x="346.625" y="18" text-anchor="middle">110</text><path d="M 346.625 2 v 4.5" style="fill:none;stroke:#000;stroke-width:1px"></path><text style="font-size:8.8125px" x="405.375" y="18" text-anchor="middle">115</text><path d="M 405.375 2 v 4.5" style="fill:none;stroke:#000;stroke-width:1px"></path><text style="font-size:8.8125px" x="464.125" y="18" text-anchor="middle">120</text><path d="M 464.125 2 v 4.5" style="fill:none;stroke:#000;stroke-width:1px"></path><text style="font-size:8.8125px" x="522.875" y="18" text-anchor="middle">125</text><path d="M 522.875 2 v 4.5" style="fill:none;stroke:#000;stroke-width:1px"></path><text style="font-size:8.8125px" x="581.625" y="18" text-anchor="middle">130</text><path d="M 581.625 2 v 4.5" style="fill:none;stroke:#000;stroke-width:1px"></path><text style="font-size:8.8125px" x="640.375" y="18" text-anchor="middle">135</text><path d="M 640.375 2 v 4.5" style="fill:none;stroke:#000;stroke-width:1px"></path><text style="font-size:8.8125px" x="699.125" y="18" text-anchor="middle">140</text><path d="M 699.125 2 v 4.5" style="fill:none;stroke:#000;stroke-width:1px"></path><text style="font-size:8.8125px" x="757.875" y="18" text-anchor="middle">145</text><path d="M 757.875 2 v 4.5" style="fill:none;stroke:#000;stroke-width:1px"></path><text style="font-size:8.8125px" x="816.625" y="18" text-anchor="middle">150</text><path d="M 816.625 2 v 4.5" style="fill:none;stroke:#000;stroke-width:1px"></path><text style="font-size:8.8125px" x="875.375" y="18" text-anchor="middle">155</text><path d="M 875.375 2 v 4.5" style="fill:none;stroke:#000;stroke-width:1px"></path><text style="font-size:8.8125px" x="934.125" y="18" text-anchor="middle">160</text><path d="M 934.125 2 v 4.5" style="fill:none;stroke:#000;stroke-width:1px"></path></g></g><g transform="translate(0, 230)"><g transform="translate(0, 0)" pointer-events="none"><text style="font-size:13.75px;font-family:monospace" x="5.875" y="18" text-anchor="middle">V</text><text style="font-size:13.75px;font-family:monospace" x="17.625" y="18" text-anchor="middle">N</text><text style="font-size:13.75px;font-family:monospace" x="29.375" y="18" text-anchor="middle">Q</text><text style="font-size:13.75px;font-family:monospace" x="41.125" y="18" text-anchor="middle">G</text><text style="font-size:13.75px;font-family:monospace" x="52.875" y="18" text-anchor="middle">F</text><text style="font-size:13.75px;font-family:monospace" x="64.625" y="18" text-anchor="middle">E</text><text style="font-size:13.75px;font-family:monospace" x="76.375" y="18" text-anchor="middle">A</text><text style="font-size:13.75px;font-family:monospace" x="88.125" y="18" text-anchor="middle">V</text><text style="font-size:13.75px;font-family:monospace" x="99.875" y="18" text-anchor="middle">Y</text><text style="font-size:13.75px;font-family:monospace" x="111.625" y="18" text-anchor="middle">Q</text><text style="font-size:13.75px;font-family:monospace" x="123.375" y="18" text-anchor="middle">L</text><text style="font-size:13.75px;font-family:monospace" x="135.125" y="18" text-anchor="middle">T</text><text style="font-size:13.75px;font-family:monospace" x="146.875" y="18" text-anchor="middle">R</text><text style="font-size:13.75px;font-family:monospace" x="158.625" y="18" text-anchor="middle">M</text><text style="font-size:13.75px;font-family:monospace" x="170.375" y="18" text-anchor="middle">C</text><text style="font-size:13.75px;font-family:monospace" x="182.125" y="18" text-anchor="middle">T</text><text style="font-size:13.75px;font-family:monospace" x="193.875" y="18" text-anchor="middle">I</text><text style="font-size:13.75px;font-family:monospace" x="205.625" y="18" text-anchor="middle">R</text><text style="font-size:13.75px;font-family:monospace" x="217.375" y="18" text-anchor="middle">M</text><text style="font-size:13.75px;font-family:monospace" x="229.125" y="18" text-anchor="middle">S</text><text style="font-size:13.75px;font-family:monospace" x="240.875" y="18" text-anchor="middle">F</text><text style="font-size:13.75px;font-family:monospace" x="252.625" y="18" text-anchor="middle">V</text><text style="font-size:13.75px;font-family:monospace" x="264.375" y="18" text-anchor="middle">K</text><text style="font-size:13.75px;font-family:monospace" x="276.125" y="18" text-anchor="middle">G</text><text style="font-size:13.75px;font-family:monospace" x="287.875" y="18" text-anchor="middle">W</text><text style="font-size:13.75px;font-family:monospace" x="299.625" y="18" text-anchor="middle">G</text><text style="font-size:13.75px;font-family:monospace" x="311.375" y="18" text-anchor="middle">A</text><text style="font-size:13.75px;font-family:monospace" x="323.125" y="18" text-anchor="middle">E</text><text style="font-size:13.75px;font-family:monospace" x="334.875" y="18" text-anchor="middle">Y</text><text style="font-size:13.75px;font-family:monospace" x="346.625" y="18" text-anchor="middle">R</text><text style="font-size:13.75px;font-family:monospace" x="358.375" y="18" text-anchor="middle">R</text><text style="font-size:13.75px;font-family:monospace" x="370.125" y="18" text-anchor="middle">Q</text><text style="font-size:13.75px;font-family:monospace" x="381.875" y="18" text-anchor="middle">T</text><text style="font-size:13.75px;font-family:monospace" x="393.625" y="18" text-anchor="middle">V</text><text style="font-size:13.75px;font-family:monospace" x="405.375" y="18" text-anchor="middle">T</text><text style="font-size:13.75px;font-family:monospace" x="417.125" y="18" text-anchor="middle">S</text><text style="font-size:13.75px;font-family:monospace" x="428.875" y="18" text-anchor="middle">T</text><text style="font-size:13.75px;font-family:monospace" x="440.625" y="18" text-anchor="middle">P</text><text style="font-size:13.75px;font-family:monospace" x="452.375" y="18" text-anchor="middle">C</text><text style="font-size:13.75px;font-family:monospace" x="464.125" y="18" text-anchor="middle">W</text><text style="font-size:13.75px;font-family:monospace" x="475.875" y="18" text-anchor="middle">I</text><text style="font-size:13.75px;font-family:monospace" x="487.625" y="18" text-anchor="middle">E</text><text style="font-size:13.75px;font-family:monospace" x="499.375" y="18" text-anchor="middle">L</text><text style="font-size:13.75px;font-family:monospace" x="511.125" y="18" text-anchor="middle">H</text><text style="font-size:13.75px;font-family:monospace" x="522.875" y="18" text-anchor="middle">L</text><text style="font-size:13.75px;font-family:monospace" x="534.625" y="18" text-anchor="middle">N</text><text style="font-size:13.75px;font-family:monospace" x="546.375" y="18" text-anchor="middle">G</text><text style="font-size:13.75px;font-family:monospace" x="558.125" y="18" text-anchor="middle">P</text><text style="font-size:13.75px;font-family:monospace" x="569.875" y="18" text-anchor="middle">L</text><text style="font-size:13.75px;font-family:monospace" x="581.625" y="18" text-anchor="middle">Q</text><text style="font-size:13.75px;font-family:monospace" x="593.375" y="18" text-anchor="middle">W</text><text style="font-size:13.75px;font-family:monospace" x="605.125" y="18" text-anchor="middle">L</text><text style="font-size:13.75px;font-family:monospace" x="616.875" y="18" text-anchor="middle">D</text><text style="font-size:13.75px;font-family:monospace" x="628.625" y="18" text-anchor="middle">K</text><text style="font-size:13.75px;font-family:monospace" x="640.375" y="18" text-anchor="middle">V</text><text style="font-size:13.75px;font-family:monospace" x="652.125" y="18" text-anchor="middle">L</text><text style="font-size:13.75px;font-family:monospace" x="663.875" y="18" text-anchor="middle">T</text><text style="font-size:13.75px;font-family:monospace" x="675.625" y="18" text-anchor="middle">Q</text><text style="font-size:13.75px;font-family:monospace" x="687.375" y="18" text-anchor="middle">M</text><text style="font-size:13.75px;font-family:monospace" x="699.125" y="18" text-anchor="middle">G</text><text style="font-size:13.75px;font-family:monospace" x="710.875" y="18" text-anchor="middle">S</text><text style="font-size:13.75px;font-family:monospace" x="722.625" y="18" text-anchor="middle">P</text><text style="font-size:13.75px;font-family:monospace" x="734.375" y="18" text-anchor="middle">S</text><text style="font-size:13.75px;font-family:monospace" x="746.125" y="18" text-anchor="middle">I</text><text style="font-size:13.75px;font-family:monospace" x="757.875" y="18" text-anchor="middle">R</text><text style="font-size:13.75px;font-family:monospace" x="769.625" y="18" text-anchor="middle">C</text><text style="font-size:13.75px;font-family:monospace" x="781.375" y="18" text-anchor="middle">S</text><text style="font-size:13.75px;font-family:monospace" x="793.125" y="18" text-anchor="middle">S</text><text style="font-size:13.75px;font-family:monospace" x="804.875" y="18" text-anchor="middle">V</text><text style="font-size:13.75px;font-family:monospace" x="816.625" y="18" text-anchor="middle">S</text><text style="font-size:13.75px;font-family:monospace" x="828.375" y="18" text-anchor="middle"></text></g><g transform="translate(0, 23)" pointer-events="none"><defs><linearGradient id="rsaGradientffd1" x1="0" x2="0" y1="0" y2="18" gradientUnits="userSpaceOnUse"><stop offset="0%" stop-color="#990000"></stop><stop offset="75%" stop-color="#990000"></stop><stop offset="75%" stop-color="#3366cc"></stop><stop offset="100%" stop-color="#3366cc"></stop></linearGradient><clipPath id="clipffd1"><rect x="0" y="0" width="822.5" height="18"></rect></clipPath></defs><path d="M -5.875 15.583795249462128 C 0 15.583795249462128, 0 10.867860198020935, 5.875 10.867860198020935 C 11.75 10.867860198020935, 11.75 3.808959722518921 17.625 3.808959722518921 C 23.5 3.808959722518921, 23.5 6.836905777454376 29.375 6.836905777454376 C 35.25 6.836905777454376, 35.25 8.602147161960602 41.125 8.602147161960602 C 47 8.602147161960602, 47 9.769521534442902 52.875 9.769521534442902 C 58.75 9.769521534442902, 58.75 4.539086997509003 64.625 4.539086997509003 C 70.5 4.539086997509003, 70.5 13.398948967456818 76.375 13.398948967456818 C 82.25 13.398948967456818, 82.25 14.664900183677673 88.125 14.664900183677673 C 94 14.664900183677673, 94 9.332384377717972 99.875 9.332384377717972 C 105.75 9.332384377717972, 105.75 9.232442140579224 111.625 9.232442140579224 C 117.5 9.232442140579224, 117.5 16.140899568796158 123.375 16.140899568796158 C 129.25 16.140899568796158, 129.25 12.529861629009247 135.125 12.529861629009247 C 141 12.529861629009247, 141 9.311046749353409 146.875 9.311046749353409 C 152.75 9.311046749353409, 152.75 13.590868562459946 158.625 13.590868562459946 C 164.5 13.590868562459946, 164.5 16.619205743074417 170.375 16.619205743074417 C 176.25 16.619205743074417, 176.25 15.672609657049179 182.125 15.672609657049179 C 188 15.672609657049179, 188 17.16359493136406 193.875 17.16359493136406 C 199.75 17.16359493136406, 199.75 14.240414321422577 205.625 14.240414321422577 C 211.5 14.240414321422577, 211.5 17.25494557619095 217.375 17.25494557619095 C 223.25 17.25494557619095, 223.25 16.416744500398636 229.125 16.416744500398636 C 235 16.416744500398636, 235 16.43053776025772 240.875 16.43053776025772 C 246.75 16.43053776025772, 246.75 15.94262570142746 252.625 15.94262570142746 C 258.5 15.94262570142746, 258.5 12.243793725967407 264.375 12.243793725967407 C 270.25 12.243793725967407, 270.25 12.30960163474083 276.125 12.30960163474083 C 282 12.30960163474083, 282 11.74633201956749 287.875 11.74633201956749 C 293.75 11.74633201956749, 293.75 10.864510297775269 299.625 10.864510297775269 C 305.5 10.864510297775269, 305.5 4.564079523086548 311.375 4.564079523086548 C 317.25 4.564079523086548, 317.25 3.5542558431625366 323.125 3.5542558431625366 C 329 3.5542558431625366, 329 13.47317823767662 334.875 13.47317823767662 C 340.75 13.47317823767662, 340.75 4.775567054748535 346.625 4.775567054748535 C 352.5 4.775567054748535, 352.5 10.796649485826492 358.375 10.796649485826492 C 364.25 10.796649485826492, 364.25 7.295042634010315 370.125 7.295042634010315 C 376 7.295042634010315, 376 11.209085941314697 381.875 11.209085941314697 C 387.75 11.209085941314697, 387.75 16.57416346669197 393.625 16.57416346669197 C 399.5 16.57416346669197, 399.5 12.091342866420746 405.375 12.091342866420746 C 411.25 12.091342866420746, 411.25 7.801836133003235 417.125 7.801836133003235 C 423 7.801836133003235, 423 16.51711940765381 428.875 16.51711940765381 C 434.75 16.51711940765381, 434.75 13.126830875873566 440.625 13.126830875873566 C 446.5 13.126830875873566, 446.5 17.24507826566696 452.375 17.24507826566696 C 458.25 17.24507826566696, 458.25 15.216296702623367 464.125 15.216296702623367 C 470 15.216296702623367, 470 17.344339579343796 475.875 17.344339579343796 C 481.75 17.344339579343796, 481.75 15.855719804763794 487.625 15.855719804763794 C 493.5 15.855719804763794, 493.5 17.29408296942711 499.375 17.29408296942711 C 505.25 17.29408296942711, 505.25 14.173023164272308 511.125 14.173023164272308 C 517 14.173023164272308, 517 16.584996432065964 522.875 16.584996432065964 C 528.75 16.584996432065964, 528.75 13.170454055070877 534.625 13.170454055070877 C 540.5 13.170454055070877, 540.5 14.030605792999268 546.375 14.030605792999268 C 552.25 14.030605792999268, 552.25 16.009258925914764 558.125 16.009258925914764 C 564 16.009258925914764, 564 16.05497047305107 569.875 16.05497047305107 C 575.75 16.05497047305107, 575.75 8.536762297153473 581.625 8.536762297153473 C 587.5 8.536762297153473, 587.5 13.648633569478989 593.375 13.648633569478989 C 599.25 13.648633569478989, 599.25 16.548245817422867 605.125 16.548245817422867 C 611 16.548245817422867, 611 12.097138315439224 616.875 12.097138315439224 C 622.75 12.097138315439224, 622.75 8.325367987155914 628.625 8.325367987155914 C 634.5 8.325367987155914, 634.5 15.131295770406723 640.375 15.131295770406723 C 646.25 15.131295770406723, 646.25 15.437365293502808 652.125 15.437365293502808 C 658 15.437365293502808, 658 7.155595183372498 663.875 7.155595183372498 C 669.75 7.155595183372498, 669.75 6.060492932796478 675.625 6.060492932796478 C 681.5 6.060492932796478, 681.5 12.608331978321075 687.375 12.608331978321075 C 693.25 12.608331978321075, 693.25 7.905144989490509 699.125 7.905144989490509 C 705 7.905144989490509, 705 11.307175397872925 710.875 11.307175397872925 C 716.75 11.307175397872925, 716.75 9.061562776565552 722.625 9.061562776565552 C 728.5 9.061562776565552, 728.5 5.1155606508255005 734.375 5.1155606508255005 C 740.25 5.1155606508255005, 740.25 10.376991391181946 746.125 10.376991391181946 C 752 10.376991391181946, 752 6.306284010410309 757.875 6.306284010410309 C 763.75 6.306284010410309, 763.75 12.287296324968338 769.625 12.287296324968338 C 775.5 12.287296324968338, 775.5 8.304711282253265 781.375 8.304711282253265 C 787.25 8.304711282253265, 787.25 8.377634942531586 793.125 8.377634942531586 C 799 8.377634942531586, 799 9.445461243391037 804.875 9.445461243391037 C 810.75 9.445461243391037, 810.75 2.8185190558433533 816.625 2.8185190558433533 C 822.5 2.8185190558433533, 822.5 2.8185190558433533 828.375 2.8185190558433533 V 13.25 H -5.875" style="fill:url(#rsaGradientffd1)" clip-path="url(#clipffd1)"></path></g><g transform="translate(0, 46)" pointer-events="none"><defs><g id="icon-ss-Hb-aaa1"><path d="M 7.05 0.5 H 2.35 Q 0 0.5, -7.05 17.5 H -2.35 Q 0 17.5, 7.05 0.5" fill="#ff6600"></path></g><g id="icon-ss-Hf-aaa1"><path d="M -7.05 0.5 H -2.35 Q 0 0.5, 7.05 17.5 H 2.35 Q 0 17.5, -7.05 0.5" fill="#ff9900"></path></g><g id="icon-ss-Hef-aaa1" style="fill:#ff9900"><path d="M 0 7.2 L 9.4 17.5 H 4.7 Q 2.35 17.5, 0 10.799999999999999"></path></g><g id="icon-ss-Heb-aaa1"><path d="M 11.75 7.2 L 2.35 17.5 H 7.05 Q 9.4 17.5, 11.75 10.799999999999999" fill="#ff6600"></path></g><clipPath id="clipaaa1"><rect x="0" y="0" width="822.5" height="18"></rect></clipPath></defs><g clip-path="url(#clipaaa1)"><rect width="0" height="3.6" y="7.2" x="0" fill="#cc3399"></rect><use xlink:href="#icon-ss-Hb-aaa1" transform="translate(0, 0)"></use><use xlink:href="#icon-ss-Heb-aaa1" transform="translate(11.75, 0)"></use><use xlink:href="#icon-ss-Hf-aaa1" transform="translate(11.75, 0)"></use><rect width="35.25" height="3.6" y="7.2" x="23.5" fill="#cc3399"></rect><use xlink:href="#icon-ss-Hb-aaa1" transform="translate(70.5, 0)"></use><use xlink:href="#icon-ss-Hef-aaa1" transform="translate(58.75, 0)"></use><use xlink:href="#icon-ss-Hb-aaa1" transform="translate(94, 0)"></use><use xlink:href="#icon-ss-Hf-aaa1" transform="translate(82.25, 0)"></use><use xlink:href="#icon-ss-Hb-aaa1" transform="translate(117.5, 0)"></use><use xlink:href="#icon-ss-Hf-aaa1" transform="translate(105.75, 0)"></use><use xlink:href="#icon-ss-Hb-aaa1" transform="translate(141, 0)"></use><use xlink:href="#icon-ss-Hf-aaa1" transform="translate(129.25, 0)"></use><use xlink:href="#icon-ss-Hef-aaa1" transform="translate(141, 0) rotate(180 5.875 9)"></use><rect width="23.5" height="3.6" y="7.2" x="152.75" fill="#cc3399"></rect><rect width="5.875" height="3.6" y="7.2" x="264.375" fill="#cc3399"></rect><path d="M 176.25 3.6 H 263.78749999999997 V 0.5 L 270.25 9 L 263.78749999999997 17.5 V 14.4 H 176.25 " fill="#660099"></path><rect width="117.5" height="3.6" y="7.2" x="270.25" fill="#cc3399"></rect><use xlink:href="#icon-ss-Hb-aaa1" transform="translate(399.5, 0)"></use><use xlink:href="#icon-ss-Hef-aaa1" transform="translate(387.75, 0)"></use><use xlink:href="#icon-ss-Heb-aaa1" transform="translate(411.25, 0)"></use><use xlink:href="#icon-ss-Hf-aaa1" transform="translate(411.25, 0)"></use><rect width="23.5" height="3.6" y="7.2" x="423" fill="#cc3399"></rect><rect width="5.875" height="3.6" y="7.2" x="522.875" fill="#cc3399"></rect><path d="M 446.5 3.6 H 522.2875 V 0.5 L 528.75 9 L 522.2875 17.5 V 14.4 H 446.5 " fill="#660099"></path><rect width="11.75" height="3.6" y="7.2" x="528.75" fill="#cc3399"></rect><use xlink:href="#icon-ss-Hb-aaa1" transform="translate(552.25, 0)"></use><use xlink:href="#icon-ss-Hef-aaa1" transform="translate(540.5, 0)"></use><use xlink:href="#icon-ss-Hb-aaa1" transform="translate(575.75, 0)"></use><use xlink:href="#icon-ss-Hf-aaa1" transform="translate(564, 0)"></use><use xlink:href="#icon-ss-Hb-aaa1" transform="translate(599.25, 0)"></use><use xlink:href="#icon-ss-Hf-aaa1" transform="translate(587.5, 0)"></use><use xlink:href="#icon-ss-Hb-aaa1" transform="translate(622.75, 0)"></use><use xlink:href="#icon-ss-Hf-aaa1" transform="translate(611, 0)"></use><use xlink:href="#icon-ss-Hb-aaa1" transform="translate(646.25, 0)"></use><use xlink:href="#icon-ss-Hf-aaa1" transform="translate(634.5, 0)"></use><use xlink:href="#icon-ss-Hb-aaa1" transform="translate(669.75, 0)"></use><use xlink:href="#icon-ss-Hf-aaa1" transform="translate(658, 0)"></use><use xlink:href="#icon-ss-Hef-aaa1" transform="translate(669.75, 0) rotate(180 5.875 9)"></use><rect width="141" height="3.6" y="7.2" x="681.5" fill="#cc3399"></rect></g></g><g transform="translate(0, 69)" pointer-events="none"><defs><clipPath id="clip066f"><rect x="0" y="0" width="822.5" height="18"></rect></clipPath></defs><path d="M -5.875 8.329610168933868 C 0 8.329610168933868, 0 8.115567654371262, 5.875 8.115567654371262 C 11.75 8.115567654371262, 11.75 8.190175473690033, 17.625 8.190175473690033 C 23.5 8.190175473690033, 23.5 8.217300713062286, 29.375 8.217300713062286 C 35.25 8.217300713062286, 35.25 8.225796043872833, 41.125 8.225796043872833 C 47 8.225796043872833, 47 8.00471755862236, 52.875 8.00471755862236 C 58.75 8.00471755862236, 58.75 8.190178781747818, 64.625 8.190178781747818 C 70.5 8.190178781747818, 70.5 8.199511766433716, 76.375 8.199511766433716 C 82.25 8.199511766433716, 82.25 8.25677838921547, 88.125 8.25677838921547 C 94 8.25677838921547, 94 8.351149007678032, 99.875 8.351149007678032 C 105.75 8.351149007678032, 105.75 8.394009672105312, 111.625 8.394009672105312 C 117.5 8.394009672105312, 117.5 8.445547588169575, 123.375 8.445547588169575 C 129.25 8.445547588169575, 129.25 8.400416798889637, 135.125 8.400416798889637 C 141 8.400416798889637, 141 8.436419367790222, 146.875 8.436419367790222 C 152.75 8.436419367790222, 152.75 8.473933465778828, 158.625 8.473933465778828 C 164.5 8.473933465778828, 164.5 8.482756234705448, 170.375 8.482756234705448 C 176.25 8.482756234705448, 176.25 8.496239490807056, 182.125 8.496239490807056 C 188 8.496239490807056, 188 8.499383510497864, 193.875 8.499383510497864 C 199.75 8.499383510497864, 199.75 8.499747910915175, 205.625 8.499747910915175 C 211.5 8.499747910915175, 211.5 8.49982499772159, 217.375 8.49982499772159 C 223.25 8.49982499772159, 223.25 8.497853183420375, 229.125 8.497853183420375 C 235 8.497853183420375, 235 8.497336830943823, 240.875 8.497336830943823 C 246.75 8.497336830943823, 246.75 8.488459287211299, 252.625 8.488459287211299 C 258.5 8.488459287211299, 258.5 8.466408886015415, 264.375 8.466408886015415 C 270.25 8.466408886015415, 270.25 8.42780764400959, 276.125 8.42780764400959 C 282 8.42780764400959, 282 8.246520400047302, 287.875 8.246520400047302 C 293.75 8.246520400047302, 293.75 8.24879440665245, 299.625 8.24879440665245 C 305.5 8.24879440665245, 305.5 8.180294692516327, 311.375 8.180294692516327 C 317.25 8.180294692516327, 317.25 8.205998063087463, 323.125 8.205998063087463 C 329 8.205998063087463, 329 8.051761597394943, 334.875 8.051761597394943 C 340.75 8.051761597394943, 340.75 8.247234880924225, 346.625 8.247234880924225 C 352.5 8.247234880924225, 352.5 8.26411360502243, 358.375 8.26411360502243 C 364.25 8.26411360502243, 364.25 8.361604943871498, 370.125 8.361604943871498 C 376 8.361604943871498, 376 8.420692063868046, 381.875 8.420692063868046 C 387.75 8.420692063868046, 387.75 8.42414589971304, 393.625 8.42414589971304 C 399.5 8.42414589971304, 399.5 8.442680161446333, 405.375 8.442680161446333 C 411.25 8.442680161446333, 411.25 8.47074618563056, 417.125 8.47074618563056 C 423 8.47074618563056, 423 8.493845125194639, 428.875 8.493845125194639 C 434.75 8.493845125194639, 434.75 8.49357172101736, 440.625 8.49357172101736 C 446.5 8.49357172101736, 446.5 8.499435099191032, 452.375 8.499435099191032 C 458.25 8.499435099191032, 458.25 8.499175929871853, 464.125 8.499175929871853 C 470 8.499175929871853, 470 8.499805125495186, 475.875 8.499805125495186 C 481.75 8.499805125495186, 481.75 8.499890970451816, 487.625 8.499890970451816 C 493.5 8.499890970451816, 493.5 8.499829017309821, 499.375 8.499829017309821 C 505.25 8.499829017309821, 505.25 8.499785921289003, 511.125 8.499785921289003 C 517 8.499785921289003, 517 8.498645420768298, 522.875 8.498645420768298 C 528.75 8.498645420768298, 528.75 8.497192080598325, 534.625 8.497192080598325 C 540.5 8.497192080598325, 540.5 8.492112940177321, 546.375 8.492112940177321 C 552.25 8.492112940177321, 552.25 8.495978953316808, 558.125 8.495978953316808 C 564 8.495978953316808, 564 8.488261331804097, 569.875 8.488261331804097 C 575.75 8.488261331804097, 575.75 8.490308260545135, 581.625 8.490308260545135 C 587.5 8.490308260545135, 587.5 8.489941687323153, 593.375 8.489941687323153 C 599.25 8.489941687323153, 599.25 8.494143813848495, 605.125 8.494143813848495 C 611 8.494143813848495, 611 8.483670523390174, 616.875 8.483670523390174 C 622.75 8.483670523390174, 622.75 8.490126917138696, 628.625 8.490126917138696 C 634.5 8.490126917138696, 634.5 8.486730236560106, 640.375 8.486730236560106 C 646.25 8.486730236560106, 646.25 8.46616468951106, 652.125 8.46616468951106 C 658 8.46616468951106, 658 8.382411539554596, 663.875 8.382411539554596 C 669.75 8.382411539554596, 669.75 8.275986164808273, 675.625 8.275986164808273 C 681.5 8.275986164808273, 681.5 7.921430826187134, 687.375 7.921430826187134 C 693.25 7.921430826187134, 693.25 7.34877073764801, 699.125 7.34877073764801 C 705 7.34877073764801, 705 7.635118663311005, 710.875 7.635118663311005 C 716.75 7.635118663311005, 716.75 7.379844307899475, 722.625 7.379844307899475 C 728.5 7.379844307899475, 728.5 6.848932385444641, 734.375 6.848932385444641 C 740.25 6.848932385444641, 740.25 6.185737133026123, 746.125 6.185737133026123 C 752 6.185737133026123, 752 6.272364854812622, 757.875 6.272364854812622 C 763.75 6.272364854812622, 763.75 6.403265953063965, 769.625 6.403265953063965 C 775.5 6.403265953063965, 775.5 6.013322353363037, 781.375 6.013322353363037 C 787.25 6.013322353363037, 787.25 6.16961669921875, 793.125 6.16961669921875 C 799 6.16961669921875, 799 5.698955535888672, 804.875 5.698955535888672 C 810.75 5.698955535888672, 810.75 5.174412727355957, 816.625 5.174412727355957 C 822.5 5.174412727355957, 822.5 5.174412727355957, 828.375 5.174412727355957 V 12.825587272644043 C 822.5 12.825587272644043, 822.5 12.825587272644043, 816.625 12.825587272644043 C 810.75 12.825587272644043, 810.75 12.301044464111328, 804.875 12.301044464111328 C 799 12.301044464111328, 799 11.83038330078125, 793.125 11.83038330078125 C 787.25 11.83038330078125, 787.25 11.986677646636963, 781.375 11.986677646636963 C 775.5 11.986677646636963, 775.5 11.596734046936035, 769.625 11.596734046936035 C 763.75 11.596734046936035, 763.75 11.727635145187378, 757.875 11.727635145187378 C 752 11.727635145187378, 752 11.814262866973877, 746.125 11.814262866973877 C 740.25 11.814262866973877, 740.25 11.151067614555359, 734.375 11.151067614555359 C 728.5 11.151067614555359, 728.5 10.620155692100525, 722.625 10.620155692100525 C 716.75 10.620155692100525, 716.75 10.364881336688995, 710.875 10.364881336688995 C 705 10.364881336688995, 705 10.65122926235199, 699.125 10.65122926235199 C 693.25 10.65122926235199, 693.25 10.078569173812866, 687.375 10.078569173812866 C 681.5 10.078569173812866, 681.5 9.724013835191727, 675.625 9.724013835191727 C 669.75 9.724013835191727, 669.75 9.617588460445404, 663.875 9.617588460445404 C 658 9.617588460445404, 658 9.53383531048894, 652.125 9.53383531048894 C 646.25 9.53383531048894, 646.25 9.513269763439894, 640.375 9.513269763439894 C 634.5 9.513269763439894, 634.5 9.509873082861304, 628.625 9.509873082861304 C 622.75 9.509873082861304, 622.75 9.516329476609826, 616.875 9.516329476609826 C 611 9.516329476609826, 611 9.505856186151505, 605.125 9.505856186151505 C 599.25 9.505856186151505, 599.25 9.510058312676847, 593.375 9.510058312676847 C 587.5 9.510058312676847, 587.5 9.509691739454865, 581.625 9.509691739454865 C 575.75 9.509691739454865, 575.75 9.511738668195903, 569.875 9.511738668195903 C 564 9.511738668195903, 564 9.504021046683192, 558.125 9.504021046683192 C 552.25 9.504021046683192, 552.25 9.507887059822679, 546.375 9.507887059822679 C 540.5 9.507887059822679, 540.5 9.502807919401675, 534.625 9.502807919401675 C 528.75 9.502807919401675, 528.75 9.501354579231702, 522.875 9.501354579231702 C 517 9.501354579231702, 517 9.500214078710997, 511.125 9.500214078710997 C 505.25 9.500214078710997, 505.25 9.500170982690179, 499.375 9.500170982690179 C 493.5 9.500170982690179, 493.5 9.500109029548184, 487.625 9.500109029548184 C 481.75 9.500109029548184, 481.75 9.500194874504814, 475.875 9.500194874504814 C 470 9.500194874504814, 470 9.500824070128147, 464.125 9.500824070128147 C 458.25 9.500824070128147, 458.25 9.500564900808968, 452.375 9.500564900808968 C 446.5 9.500564900808968, 446.5 9.50642827898264, 440.625 9.50642827898264 C 434.75 9.50642827898264, 434.75 9.506154874805361, 428.875 9.506154874805361 C 423 9.506154874805361, 423 9.52925381436944, 417.125 9.52925381436944 C 411.25 9.52925381436944, 411.25 9.557319838553667, 405.375 9.557319838553667 C 399.5 9.557319838553667, 399.5 9.57585410028696, 393.625 9.57585410028696 C 387.75 9.57585410028696, 387.75 9.579307936131954, 381.875 9.579307936131954 C 376 9.579307936131954, 376 9.638395056128502, 370.125 9.638395056128502 C 364.25 9.638395056128502, 364.25 9.73588639497757, 358.375 9.73588639497757 C 352.5 9.73588639497757, 352.5 9.752765119075775, 346.625 9.752765119075775 C 340.75 9.752765119075775, 340.75 9.948238402605057, 334.875 9.948238402605057 C 329 9.948238402605057, 329 9.794001936912537, 323.125 9.794001936912537 C 317.25 9.794001936912537, 317.25 9.819705307483673, 311.375 9.819705307483673 C 305.5 9.819705307483673, 305.5 9.75120559334755, 299.625 9.75120559334755 C 293.75 9.75120559334755, 293.75 9.753479599952698, 287.875 9.753479599952698 C 282 9.753479599952698, 282 9.57219235599041, 276.125 9.57219235599041 C 270.25 9.57219235599041, 270.25 9.533591113984585, 264.375 9.533591113984585 C 258.5 9.533591113984585, 258.5 9.511540712788701, 252.625 9.511540712788701 C 246.75 9.511540712788701, 246.75 9.502663169056177, 240.875 9.502663169056177 C 235 9.502663169056177, 235 9.502146816579625, 229.125 9.502146816579625 C 223.25 9.502146816579625, 223.25 9.50017500227841, 217.375 9.50017500227841 C 211.5 9.50017500227841, 211.5 9.500252089084825, 205.625 9.500252089084825 C 199.75 9.500252089084825, 199.75 9.500616489502136, 193.875 9.500616489502136 C 188 9.500616489502136, 188 9.503760509192944, 182.125 9.503760509192944 C 176.25 9.503760509192944, 176.25 9.517243765294552, 170.375 9.517243765294552 C 164.5 9.517243765294552, 164.5 9.526066534221172, 158.625 9.526066534221172 C 152.75 9.526066534221172, 152.75 9.563580632209778, 146.875 9.563580632209778 C 141 9.563580632209778, 141 9.599583201110363, 135.125 9.599583201110363 C 129.25 9.599583201110363, 129.25 9.554452411830425, 123.375 9.554452411830425 C 117.5 9.554452411830425, 117.5 9.605990327894688, 111.625 9.605990327894688 C 105.75 9.605990327894688, 105.75 9.648850992321968, 99.875 9.648850992321968 C 94 9.648850992321968, 94 9.74322161078453, 88.125 9.74322161078453 C 82.25 9.74322161078453, 82.25 9.800488233566284, 76.375 9.800488233566284 C 70.5 9.800488233566284, 70.5 9.809821218252182, 64.625 9.809821218252182 C 58.75 9.809821218252182, 58.75 9.99528244137764, 52.875 9.99528244137764 C 47 9.99528244137764, 47 9.774203956127167, 41.125 9.774203956127167 C 35.25 9.774203956127167, 35.25 9.782699286937714, 29.375 9.782699286937714 C 23.5 9.782699286937714, 23.5 9.809824526309967, 17.625 9.809824526309967 C 11.75 9.809824526309967, 11.75 9.884432345628738, 5.875 9.884432345628738 C 0 9.884432345628738, 0 9.670389831066132, -5.875 9.670389831066132 " style="fill:#666" clip-path="url(#clip066f)"></path></g><g transform="translate(0, 92)" pointer-events="none"><path d="M 0 6.5 H 816.625" style="fill:none;stroke:#000;stroke-width:1px"></path><circle cx="816.625" cy="6.5" fill="black" r="1.9583333333333333"></circle><text style="font-size:8.8125px" x="52.875" y="18" text-anchor="middle">165</text><path d="M 52.875 2 v 4.5" style="fill:none;stroke:#000;stroke-width:1px"></path><text style="font-size:8.8125px" x="111.625" y="18" text-anchor="middle">170</text><path d="M 111.625 2 v 4.5" style="fill:none;stroke:#000;stroke-width:1px"></path><text style="font-size:8.8125px" x="170.375" y="18" text-anchor="middle">175</text><path d="M 170.375 2 v 4.5" style="fill:none;stroke:#000;stroke-width:1px"></path><text style="font-size:8.8125px" x="229.125" y="18" text-anchor="middle">180</text><path d="M 229.125 2 v 4.5" style="fill:none;stroke:#000;stroke-width:1px"></path><text style="font-size:8.8125px" x="287.875" y="18" text-anchor="middle">185</text><path d="M 287.875 2 v 4.5" style="fill:none;stroke:#000;stroke-width:1px"></path><text style="font-size:8.8125px" x="346.625" y="18" text-anchor="middle">190</text><path d="M 346.625 2 v 4.5" style="fill:none;stroke:#000;stroke-width:1px"></path><text style="font-size:8.8125px" x="405.375" y="18" text-anchor="middle">195</text><path d="M 405.375 2 v 4.5" style="fill:none;stroke:#000;stroke-width:1px"></path><text style="font-size:8.8125px" x="464.125" y="18" text-anchor="middle">200</text><path d="M 464.125 2 v 4.5" style="fill:none;stroke:#000;stroke-width:1px"></path><text style="font-size:8.8125px" x="522.875" y="18" text-anchor="middle">205</text><path d="M 522.875 2 v 4.5" style="fill:none;stroke:#000;stroke-width:1px"></path><text style="font-size:8.8125px" x="581.625" y="18" text-anchor="middle">210</text><path d="M 581.625 2 v 4.5" style="fill:none;stroke:#000;stroke-width:1px"></path><text style="font-size:8.8125px" x="640.375" y="18" text-anchor="middle">215</text><path d="M 640.375 2 v 4.5" style="fill:none;stroke:#000;stroke-width:1px"></path><text style="font-size:8.8125px" x="699.125" y="18" text-anchor="middle">220</text><path d="M 699.125 2 v 4.5" style="fill:none;stroke:#000;stroke-width:1px"></path><text style="font-size:8.8125px" x="757.875" y="18" text-anchor="middle">225</text><path d="M 757.875 2 v 4.5" style="fill:none;stroke:#000;stroke-width:1px"></path><text style="font-size:8.8125px" x="816.625" y="18" text-anchor="middle">230</text><path d="M 816.625 2 v 4.5" style="fill:none;stroke:#000;stroke-width:1px"></path></g></g></svg>